<svg width="24" height="24" viewBox="0 0 24 24" fill="none" xmlns="http://www.w3.org/2000/svg">
<path d="M4.62 18.12C5.64 17.34 6.78 16.73 8.04 16.29C9.3 15.83 10.62 15.6 12 15.6C13.38 15.6 14.7 15.83 15.96 16.29C17.22 16.73 18.36 17.34 19.38 18.12C20.08 17.3 20.62 16.37 21 15.33C21.4 14.29 21.6 13.18 21.6 12C21.6 9.34 20.66 7.08 18.78 5.22C16.92 3.34 14.66 2.4 12 2.4C9.34 2.4 7.07 3.34 5.19 5.22C3.33 7.08 2.4 9.34 2.4 12C2.4 13.18 2.59 14.29 2.97 15.33C3.37 16.37 3.92 17.3 4.62 18.12ZM12 13.2C10.82 13.2 9.82 12.8 9 12C8.2 11.18 7.8 10.18 7.8 9C7.8 7.82 8.2 6.83 9 6.03C9.82 5.21 10.82 4.8 12 4.8C13.18 4.8 14.17 5.21 14.97 6.03C15.79 6.83 16.2 7.82 16.2 9C16.2 10.18 15.79 11.18 14.97 12C14.17 12.8 13.18 13.2 12 13.2ZM12 24C10.34 24 8.78 23.69 7.32 23.07C5.86 22.43 4.59 21.57 3.51 20.49C2.43 19.41 1.57 18.14 0.93 16.68C0.31 15.22 0 13.66 0 12C0 10.34 0.31 8.78 0.93 7.32C1.57 5.86 2.43 4.59 3.51 3.51C4.59 2.43 5.86 1.58 7.32 0.959999C8.78 0.32 10.34 0 12 0C13.66 0 15.22 0.32 16.68 0.959999C18.14 1.58 19.41 2.43 20.49 3.51C21.57 4.59 22.42 5.86 23.04 7.32C23.68 8.78 24 10.34 24 12C24 13.66 23.68 15.22 23.04 16.68C22.42 18.14 21.57 19.41 20.49 20.49C19.41 21.57 18.14 22.43 16.68 23.07C15.22 23.69 13.66 24 12 24ZM12 21.6C13.06 21.6 14.06 21.45 15 21.15C15.94 20.83 16.8 20.38 17.58 19.8C16.8 19.22 15.94 18.78 15 18.48C14.06 18.16 13.06 18 12 18C10.94 18 9.94 18.16 9 18.48C8.06 18.78 7.2 19.22 6.42 19.8C7.2 20.38 8.06 20.83 9 21.15C9.94 21.45 10.94 21.6 12 21.6ZM12 10.8C12.52 10.8 12.95 10.63 13.29 10.29C13.63 9.95 13.8 9.52 13.8 9C13.8 8.48 13.63 8.05 13.29 7.71C12.95 7.37 12.52 7.2 12 7.2C11.48 7.2 11.05 7.37 10.71 7.71C10.37 8.05 10.2 8.48 10.2 9C10.2 9.52 10.37 9.95 10.71 10.29C11.05 10.63 11.48 10.8 12 10.8Z" fill="#3F4946"/>
<path d="M4.62 18.12C5.64 17.34 6.78 16.73 8.04 16.29C9.3 15.83 10.62 15.6 12 15.6C13.38 15.6 14.7 15.83 15.96 16.29C17.22 16.73 18.36 17.34 19.38 18.12C20.08 17.3 20.62 16.37 21 15.33C21.4 14.29 21.6 13.18 21.6 12C21.6 9.34 20.66 7.08 18.78 5.22C16.92 3.34 14.66 2.4 12 2.4C9.34 2.4 7.07 3.34 5.19 5.22C3.33 7.08 2.4 9.34 2.4 12C2.4 13.18 2.59 14.29 2.97 15.33C3.37 16.37 3.92 17.3 4.62 18.12ZM12 13.2C10.82 13.2 9.82 12.8 9 12C8.2 11.18 7.8 10.18 7.8 9C7.8 7.82 8.2 6.83 9 6.03C9.82 5.21 10.82 4.8 12 4.8C13.18 4.8 14.17 5.21 14.97 6.03C15.79 6.83 16.2 7.82 16.2 9C16.2 10.18 15.79 11.18 14.97 12C14.17 12.8 13.18 13.2 12 13.2ZM12 24C10.34 24 8.78 23.69 7.32 23.07C5.86 22.43 4.59 21.57 3.51 20.49C2.43 19.41 1.57 18.14 0.93 16.68C0.31 15.22 0 13.66 0 12C0 10.34 0.31 8.78 0.93 7.32C1.57 5.86 2.43 4.59 3.51 3.51C4.59 2.43 5.86 1.58 7.32 0.959999C8.78 0.32 10.34 0 12 0C13.66 0 15.22 0.32 16.68 0.959999C18.14 1.58 19.41 2.43 20.49 3.51C21.57 4.59 22.42 5.86 23.04 7.32C23.68 8.78 24 10.34 24 12C24 13.66 23.68 15.22 23.04 16.68C22.42 18.14 21.57 19.41 20.49 20.49C19.41 21.57 18.14 22.43 16.68 23.07C15.22 23.69 13.66 24 12 24ZM12 21.6C13.06 21.6 14.06 21.45 15 21.15C15.94 20.83 16.8 20.38 17.58 19.8C16.8 19.22 15.94 18.78 15 18.48C14.06 18.16 13.06 18 12 18C10.94 18 9.94 18.16 9 18.48C8.06 18.78 7.2 19.22 6.42 19.8C7.2 20.38 8.06 20.83 9 21.15C9.94 21.45 10.94 21.6 12 21.6ZM12 10.8C12.52 10.8 12.95 10.63 13.29 10.29C13.63 9.95 13.8 9.52 13.8 9C13.8 8.48 13.63 8.05 13.29 7.71C12.95 7.37 12.52 7.2 12 7.2C11.48 7.2 11.05 7.37 10.71 7.71C10.37 8.05 10.2 8.48 10.2 9C10.2 9.52 10.37 9.95 10.71 10.29C11.05 10.63 11.48 10.8 12 10.8Z" fill="#C8D1E1"/>
</svg>
