<svg width="255" height="240" viewBox="0 0 255 240" fill="none" xmlns="http://www.w3.org/2000/svg">
<path d="M208.033 22.1586L210.646 19.3413L216.021 23.8318L225.927 13.5572L228.534 16.198L215.814 29.0974L208.033 22.1586Z" fill="#E0E0E0"/>
<path d="M239.762 21.4901C239.762 21.4901 239.762 21.3725 239.736 21.1427C239.709 20.9128 239.698 20.5707 239.667 20.1323C239.667 19.9078 239.64 19.6619 239.624 19.3892C239.608 19.1166 239.539 18.8172 239.491 18.4965C239.443 18.1757 239.385 17.8283 239.327 17.4594C239.256 17.068 239.163 16.6807 239.05 16.2994C238.558 14.3049 237.767 12.3977 236.703 10.6435C235.315 8.30787 233.494 6.26253 231.339 4.61878L230.425 3.93986C230.106 3.72603 229.772 3.53358 229.437 3.32509C229.103 3.11661 228.773 2.89208 228.407 2.72636L227.313 2.19178L226.755 1.92984L226.171 1.716L224.986 1.27765C224.583 1.144 224.163 1.05847 223.744 0.946207C223.325 0.822369 222.9 0.725943 222.469 0.657534C221.592 0.491456 220.705 0.387847 219.813 0.347477C219.357 0.347477 218.9 0.283327 218.438 0.294019L217.046 0.363514C216.813 0.363514 216.574 0.363514 216.34 0.411626L215.639 0.518543C215.171 0.59873 214.693 0.652188 214.221 0.753759C212.291 1.19264 210.426 1.87895 208.671 2.79586C208.224 3.03642 207.8 3.33044 207.359 3.58169C207.136 3.70934 206.919 3.84852 206.711 3.99866L206.089 4.46375C205.25 5.09243 204.452 5.77452 203.699 6.50585C202.959 7.2787 202.271 8.1002 201.639 8.96492L201.155 9.61711L200.73 10.3121L200.305 11.0124L200.093 11.3652L199.918 11.734L199.201 13.2362L198.627 14.8025C197.944 16.9641 197.585 19.2165 197.565 21.4848C197.585 23.7549 197.943 26.009 198.627 28.1724L199.201 29.7441C199.44 30.2412 199.679 30.7384 199.912 31.2356L200.093 31.6044L200.305 31.9572L200.73 32.6629L201.155 33.3578L201.639 34.01C202.271 34.873 202.959 35.6928 203.699 36.4638C204.45 37.1983 205.249 37.8823 206.089 38.5112L206.705 38.9763C206.913 39.1313 207.141 39.2543 207.359 39.3879C207.8 39.6552 208.224 39.9225 208.671 40.1791C209.558 40.6451 210.475 41.0505 211.416 41.3926C212.332 41.7322 213.268 42.009 214.221 42.2212C214.693 42.3228 215.171 42.3762 215.639 42.4564L216.34 42.5633C216.579 42.5954 216.813 42.5954 217.046 42.6114L218.438 42.6809C218.9 42.6809 219.357 42.6435 219.813 42.6275C220.705 42.5871 221.592 42.4835 222.469 42.3174C222.901 42.2485 223.329 42.152 223.749 42.0287C224.163 41.9165 224.583 41.8256 224.986 41.692L226.176 41.2589L226.76 41.0451L227.292 40.7778L228.412 40.2539C228.779 40.0882 229.103 39.853 229.443 39.6605C229.782 39.4681 230.112 39.2596 230.436 39.0458L231.344 38.3615C233.501 36.7224 235.323 34.6783 236.708 32.3421C237.765 30.585 238.549 28.676 239.035 26.6809C239.147 26.2994 239.239 25.9122 239.311 25.5209C239.369 25.152 239.422 24.8045 239.475 24.4838C239.528 24.163 239.582 23.8637 239.608 23.591C239.635 23.3184 239.64 23.0565 239.651 22.848C239.682 22.4096 239.704 22.0728 239.72 21.8323C239.736 21.5917 239.746 21.4901 239.746 21.4901C239.746 21.4901 239.746 21.6078 239.746 21.8376C239.746 22.0675 239.746 22.4096 239.709 22.848L239.677 23.5964C239.677 23.8744 239.598 24.1684 239.555 24.4945C239.513 24.8206 239.459 25.1681 239.406 25.5637C239.353 25.9592 239.231 26.3228 239.141 26.7344C238.661 28.7455 237.878 30.6709 236.82 32.4437C235.436 34.8069 233.611 36.8782 231.445 38.5433L230.537 39.1848C230.213 39.4039 229.873 39.5964 229.538 39.8102C229.204 40.0241 228.869 40.2486 228.502 40.4143L227.398 40.9489L226.835 41.2162C226.644 41.291 226.447 41.3659 226.245 41.4354L225.05 41.8791C224.641 42.018 224.216 42.1036 223.797 42.2212C223.373 42.3486 222.942 42.4486 222.506 42.5205C221.618 42.6879 220.721 42.795 219.819 42.8413C219.357 42.8413 218.895 42.9055 218.427 42.8948L217.02 42.8253C216.781 42.8253 216.542 42.8253 216.308 42.7825L215.596 42.6756C215.118 42.5954 214.64 42.5419 214.162 42.4404C213.196 42.2282 212.244 41.9496 211.316 41.6064C210.363 41.2631 209.435 40.854 208.538 40.3822C208.086 40.1363 207.651 39.8477 207.21 39.5857C206.987 39.4467 206.759 39.3291 206.546 39.1687L205.919 38.6983C205.068 38.0623 204.259 37.3712 203.497 36.6295C202.746 35.8503 202.048 35.0197 201.41 34.1437L200.916 33.4861L200.486 32.7805L200.056 32.0695L199.843 31.7113L199.663 31.3371C199.418 30.8346 199.179 30.3268 198.935 29.8243C198.691 29.3218 198.553 28.7551 198.356 28.2205C197.655 26.031 197.284 23.7478 197.257 21.4474C197.284 19.1488 197.655 16.8673 198.356 14.6796L198.935 13.0758C199.179 12.568 199.424 12.0655 199.663 11.563L199.843 11.1834L200.061 10.8306L200.491 10.1196L200.916 9.41397L201.41 8.75109C202.05 7.8765 202.749 7.04769 203.503 6.27063C204.262 5.52766 205.069 4.83651 205.919 4.2018L206.551 3.73137C206.759 3.571 206.992 3.45339 207.21 3.3144C207.656 3.04711 208.086 2.77982 208.538 2.51787C209.434 2.04388 210.362 1.63478 211.316 1.29369C212.244 0.950532 213.196 0.671896 214.162 0.459739C214.64 0.358168 215.118 0.304711 215.596 0.224524L216.303 0.117607C216.542 0.0855326 216.781 0.0908784 217.02 0.074841L218.427 0C218.895 0 219.357 0.0427658 219.813 0.0588032C220.717 0.10484 221.617 0.211998 222.506 0.379552C222.942 0.451523 223.373 0.551515 223.797 0.678917C224.216 0.796525 224.641 0.882058 225.05 1.02105L226.245 1.46475L226.835 1.67858L227.398 1.95122L228.502 2.4858C228.869 2.65687 229.193 2.89743 229.538 3.09522C229.883 3.29302 230.213 3.5015 230.537 3.71534L231.45 4.41029C233.619 6.07391 235.446 8.14541 236.83 10.5099C237.89 12.2822 238.673 14.2077 239.151 16.2192C239.242 16.6308 239.374 17.0104 239.417 17.3899C239.459 17.7695 239.518 18.1063 239.566 18.4591C239.613 18.8119 239.661 19.0792 239.688 19.3518C239.714 19.6245 239.688 19.8864 239.72 20.1002C239.72 20.5439 239.746 20.8807 239.757 21.1159C239.767 21.3512 239.762 21.4901 239.762 21.4901Z" fill="#E0E0E0"/>
<path d="M200.656 42.8094C200.629 42.8094 200.629 42.5902 200.523 42.2214C200.374 41.7023 200.058 41.2474 199.626 40.9277C199.279 40.6621 198.866 40.4991 198.432 40.4573C197.999 40.4155 197.562 40.4964 197.172 40.6909C196.782 40.8855 196.453 41.1859 196.224 41.5584C195.994 41.9308 195.872 42.3604 195.872 42.7987C195.872 43.2371 195.994 43.6667 196.224 44.0391C196.453 44.4115 196.782 44.712 197.172 44.9065C197.562 45.101 197.999 45.182 198.432 45.1401C198.866 45.0983 199.279 44.9354 199.626 44.6698C200.058 44.3498 200.374 43.895 200.523 43.3761C200.629 43.0019 200.629 42.7827 200.656 42.7827C200.666 42.8356 200.666 42.8901 200.656 42.9431C200.662 43.0975 200.648 43.2521 200.613 43.4028C200.5 43.9758 200.187 44.4894 199.732 44.8515C199.394 45.1185 198.996 45.2953 198.572 45.3654C198.149 45.4355 197.714 45.3966 197.31 45.2524C196.81 45.0721 196.379 44.7408 196.073 44.304C195.768 43.8672 195.604 43.3462 195.604 42.8121C195.604 42.278 195.768 41.7569 196.073 41.3201C196.379 40.8833 196.81 40.5521 197.31 40.3717C197.716 40.2297 198.151 40.1935 198.574 40.2664C198.998 40.3393 199.396 40.519 199.732 40.7887C200.184 41.1452 200.498 41.6504 200.619 42.216C200.653 42.365 200.667 42.5177 200.661 42.6704C200.667 42.7167 200.665 42.7637 200.656 42.8094Z" fill="#E0E0E0"/>
<path d="M15.1422 138.622H0V153.863H15.1422V138.622Z" fill="#F5F5F5"/>
<path d="M15.1422 155.484H0V170.725H15.1422V155.484Z" fill="#F5F5F5"/>
<path d="M15.1422 172.338H0V187.579H15.1422V172.338Z" fill="#F5F5F5"/>
<path d="M32.2706 138.622H17.1284V153.863H32.2706V138.622Z" fill="#F5F5F5"/>
<path d="M32.2706 155.484H17.1284V170.725H32.2706V155.484Z" fill="#F5F5F5"/>
<path d="M32.2706 172.338H17.1284V187.579H32.2706V172.338Z" fill="#F5F5F5"/>
<path d="M49.4044 138.622H34.2622V153.863H49.4044V138.622Z" fill="#F5F5F5"/>
<path d="M49.4044 155.484H34.2622V170.725H49.4044V155.484Z" fill="#F5F5F5"/>
<path d="M49.4044 172.338H34.2622V187.579H49.4044V172.338Z" fill="#F5F5F5"/>
<path d="M66.5381 138.622H51.396V153.863H66.5381V138.622Z" fill="#F5F5F5"/>
<path d="M66.5381 155.484H51.396V170.725H66.5381V155.484Z" fill="#F5F5F5"/>
<path d="M66.5381 172.338H51.396V187.579H66.5381V172.338Z" fill="#F5F5F5"/>
<path d="M83.6724 138.622H68.5303V153.863H83.6724V138.622Z" fill="#F5F5F5"/>
<path d="M83.6724 155.484H68.5303V170.725H83.6724V155.484Z" fill="#F5F5F5"/>
<path d="M83.6724 172.338H68.5303V187.579H83.6724V172.338Z" fill="#F5F5F5"/>
<path d="M100.806 138.622H85.6641V153.863H100.806V138.622Z" fill="#F5F5F5"/>
<path d="M100.806 155.484H85.6641V170.725H100.806V155.484Z" fill="#F5F5F5"/>
<path d="M100.806 172.338H85.6641V187.579H100.806V172.338Z" fill="#F5F5F5"/>
<path d="M117.935 138.622H102.792V153.863H117.935V138.622Z" fill="#F5F5F5"/>
<path d="M117.935 155.484H102.792V170.725H117.935V155.484Z" fill="#F5F5F5"/>
<path d="M117.935 172.338H102.792V187.579H117.935V172.338Z" fill="#F5F5F5"/>
<path d="M135.068 138.622H119.926V153.863H135.068V138.622Z" fill="#F5F5F5"/>
<path d="M135.068 155.484H119.926V170.725H135.068V155.484Z" fill="#F5F5F5"/>
<path d="M135.068 172.338H119.926V187.579H135.068V172.338Z" fill="#F5F5F5"/>
<path d="M152.202 138.622H137.06V153.863H152.202V138.622Z" fill="#F5F5F5"/>
<path d="M152.202 155.484H137.06V170.725H152.202V155.484Z" fill="#F5F5F5"/>
<path d="M152.202 172.338H137.06V187.579H152.202V172.338Z" fill="#F5F5F5"/>
<path d="M169.336 138.622H154.194V153.863H169.336V138.622Z" fill="#F5F5F5"/>
<path d="M169.336 155.484H154.194V170.725H169.336V155.484Z" fill="#F5F5F5"/>
<path d="M169.336 172.338H154.194V187.579H169.336V172.338Z" fill="#F5F5F5"/>
<path d="M186.47 138.622H171.328V153.863H186.47V138.622Z" fill="#F5F5F5"/>
<path d="M186.47 155.484H171.328V170.725H186.47V155.484Z" fill="#F5F5F5"/>
<path d="M186.47 172.338H171.328V187.579H186.47V172.338Z" fill="#F5F5F5"/>
<path d="M203.604 138.622H188.461V153.863H203.604V138.622Z" fill="#F5F5F5"/>
<path d="M203.604 155.484H188.461V170.725H203.604V155.484Z" fill="#F5F5F5"/>
<path d="M203.604 172.338H188.461V187.579H203.604V172.338Z" fill="#F5F5F5"/>
<path d="M220.732 138.622H205.59V153.863H220.732V138.622Z" fill="#F5F5F5"/>
<path d="M220.732 155.484H205.59V170.725H220.732V155.484Z" fill="#F5F5F5"/>
<path d="M220.732 172.338H205.59V187.579H220.732V172.338Z" fill="#F5F5F5"/>
<path d="M237.866 138.622H222.724V153.863H237.866V138.622Z" fill="#F5F5F5"/>
<path d="M237.866 155.484H222.724V170.725H237.866V155.484Z" fill="#F5F5F5"/>
<path d="M237.866 172.338H222.724V187.579H237.866V172.338Z" fill="#F5F5F5"/>
<path d="M255 138.622H239.858V153.863H255V138.622Z" fill="#F5F5F5"/>
<path d="M255 155.484H239.858V170.725H255V155.484Z" fill="#F5F5F5"/>
<path d="M255 172.338H239.858V187.579H255V172.338Z" fill="#F5F5F5"/>
<path d="M134.373 26.4724C134.373 26.4724 129.12 27.3171 126.268 36.6295C123.416 45.9419 120.51 60.6856 120.611 61.4233C120.85 63.2195 122.534 63.4013 123.915 64.6682C124.728 65.422 124.892 65.2028 124.335 68.2339C123.835 70.9656 117.064 94.2199 115.677 98.9669C115.647 99.0741 115.638 99.1866 115.653 99.2972C115.668 99.4077 115.706 99.514 115.764 99.6091C115.822 99.7042 115.899 99.786 115.99 99.8494C116.081 99.9128 116.185 99.9564 116.293 99.9773L122.04 101.046C122.145 101.067 122.252 101.066 122.356 101.044C122.461 101.021 122.559 100.978 122.646 100.916C122.733 100.854 122.807 100.775 122.862 100.683C122.918 100.592 122.954 100.49 122.97 100.384L128.44 63.6044C128.44 63.6044 135.546 28.9101 135.573 28.3221C135.6 27.734 135.908 26.5099 134.373 26.4724Z" fill="#E0E0E0"/>
<path d="M29.1107 105.249C27.6554 104.153 27.1296 100.208 25.1485 97.6257C23.1675 95.0437 10.3675 87.7253 9.40621 87.1853C9.14992 87.0183 8.84376 86.9464 8.54049 86.9822C8.48895 86.9932 8.44162 87.0189 8.40409 87.0561C8.36655 87.0933 8.34037 87.1405 8.32865 87.1922C8.31692 87.2439 8.32014 87.2979 8.33791 87.3479C8.35568 87.3978 8.38728 87.4416 8.42896 87.474L19.5824 95.8562C19.6774 95.924 19.7459 96.0231 19.7759 96.1364C19.806 96.2496 19.7958 96.3699 19.7471 96.4763C19.7147 96.538 19.6695 96.5919 19.6146 96.6344C19.5597 96.6769 19.4963 96.707 19.4288 96.7228C19.3613 96.7385 19.2913 96.7394 19.2234 96.7255C19.1555 96.7116 19.0914 96.6831 19.0354 96.6421L7.77037 88.5913C7.65275 88.5034 7.50526 88.4661 7.36034 88.4877C7.21541 88.5092 7.08493 88.5878 6.9976 88.7062C6.91026 88.8246 6.87323 88.9731 6.89465 89.1189C6.91606 89.2648 6.99417 89.3961 7.11179 89.484L18.09 97.9411C18.1841 98.0097 18.2514 98.1091 18.2805 98.2223C18.3096 98.3355 18.2986 98.4553 18.2493 98.5612C18.2176 98.6235 18.1727 98.6781 18.1179 98.7211C18.063 98.7642 17.9995 98.7946 17.9317 98.8104C17.8639 98.8262 17.7936 98.8269 17.7255 98.8125C17.6574 98.7981 17.5933 98.7689 17.5376 98.7269L6.28325 90.6334C6.15929 90.5426 6.00459 90.5052 5.8532 90.5292C5.7018 90.5533 5.5661 90.6369 5.47595 90.7617C5.3858 90.8864 5.34858 91.0421 5.37248 91.1945C5.39639 91.3469 5.47946 91.4835 5.60341 91.5742L16.4966 100.026C16.5915 100.094 16.6596 100.193 16.6887 100.307C16.7179 100.42 16.7063 100.54 16.656 100.646C16.6242 100.708 16.5794 100.763 16.5245 100.806C16.4697 100.849 16.4061 100.88 16.3384 100.895C16.2706 100.911 16.2002 100.912 16.1321 100.897C16.0641 100.883 16 100.854 15.9443 100.812L4.75363 92.4189C4.70754 92.3847 4.65264 92.3646 4.59551 92.3611C4.53837 92.3575 4.48144 92.3707 4.43153 92.3989C4.38163 92.4271 4.34087 92.4692 4.31416 92.5202C4.28745 92.5711 4.27591 92.6288 4.28093 92.6862C4.33049 92.9952 4.48885 93.2761 4.72707 93.4773C5.51312 94.2525 16.1408 104.5 19.1628 105.676C22.1849 106.853 26.0992 106.211 27.5545 107.318C28.8876 108.312 56.4048 130.363 61.1901 134.202C61.2829 134.275 61.3894 134.329 61.5032 134.36C61.617 134.391 61.7359 134.399 61.8528 134.383C61.9697 134.367 62.0822 134.328 62.1837 134.267C62.2851 134.207 62.3735 134.126 62.4436 134.031L64.6796 131.005C64.7514 130.91 64.8032 130.802 64.832 130.686C64.8608 130.571 64.8659 130.451 64.847 130.333C64.8281 130.216 64.7856 130.103 64.7222 130.003C64.6587 129.902 64.5755 129.816 64.4778 129.749C59.4375 126.258 30.4385 106.243 29.1107 105.249Z" fill="#E0E0E0"/>
<path d="M242.752 239.86C242.752 239.935 190.703 239.999 126.469 239.999C62.2361 239.999 10.1548 239.935 10.1548 239.86C10.1548 239.786 62.2043 239.721 126.469 239.721C190.735 239.721 242.752 239.78 242.752 239.86Z" fill="#263238"/>
<path d="M60.3032 213.784C60.4598 212.761 60.4138 211.717 60.1679 210.713C59.922 209.708 59.4809 208.762 58.8702 207.93C58.2595 207.098 57.4912 206.395 56.6096 205.863C55.7279 205.331 54.7504 204.98 53.7332 204.83C53.5541 204.789 53.3666 204.812 53.2021 204.894C53.1061 204.991 53.0366 205.111 53.0003 205.243C52.964 205.375 52.9622 205.515 52.995 205.648C53.1825 207.635 53.9891 209.512 55.2997 211.011C56.6102 212.509 58.3577 213.553 60.2925 213.992" fill="#455A64"/>
<path d="M49.3831 228.256C51.3483 232.335 54.1632 235.077 57.6739 235.205C58.3696 235.232 58.9007 234.767 59.57 234.73C59.961 234.818 60.3381 234.96 60.6906 235.152C60.8731 235.234 61.0698 235.279 61.2695 235.286C64.8864 235.093 67.9669 232.533 70.0436 228.251C72.9329 222.258 72.0406 215.816 68.0519 213.86C67.5293 213.595 66.9834 213.381 66.4214 213.218C65.7748 213.04 65.1051 212.96 64.435 212.983C62.88 213.083 61.3508 213.431 59.9046 214.015L59.708 214.084C56.4682 212.646 53.8658 212.635 51.3642 213.86C47.3755 215.822 46.4885 222.263 49.3831 228.256Z" fill="#FD9706"/>
<path d="M49.4524 222.182C49.2644 221.808 49.1524 221.399 49.1231 220.98C49.0054 219.966 49.1274 218.938 49.479 217.98C49.8307 217.022 50.402 216.162 51.1466 215.468C51.4398 215.167 51.7902 214.929 52.177 214.768C52.177 214.811 51.8052 215.067 51.2794 215.607C50.6029 216.313 50.079 217.153 49.7408 218.073C49.4026 218.993 49.2574 219.974 49.3143 220.953C49.3674 221.712 49.5002 222.166 49.4524 222.182Z" fill="#FAFAFA"/>
<path d="M50.1851 225.032C50.1107 225.032 49.9832 224.765 49.8983 224.401C49.8133 224.038 49.808 223.723 49.8983 223.707C49.9886 223.69 50.1001 223.974 50.1851 224.337C50.27 224.701 50.2594 225.016 50.1851 225.032Z" fill="#FAFAFA"/>
<path d="M68.5459 203.98C68.5459 204.028 67.797 204.317 66.671 204.996C66.015 205.393 65.39 205.84 64.8015 206.332C64.0899 206.946 63.4308 207.618 62.831 208.342C62.2342 209.075 61.7011 209.859 61.2377 210.684C60.8732 211.363 60.5607 212.069 60.3029 212.796C59.8674 214.036 59.7399 214.854 59.6868 214.843C59.6787 214.649 59.6984 214.454 59.7452 214.266C59.7756 214.04 59.8199 213.817 59.878 213.597C59.9471 213.341 60.0055 213.063 60.117 212.731C60.3551 211.986 60.6553 211.261 61.0146 210.566C61.9046 208.859 63.1297 207.351 64.6156 206.135C65.2202 205.641 65.8671 205.203 66.5489 204.825C66.8062 204.674 67.0722 204.538 67.3455 204.419C67.5468 204.316 67.7543 204.227 67.9669 204.151C68.1505 204.066 68.3456 204.008 68.5459 203.98Z" fill="#263238"/>
<path d="M30.1035 230.523V231.282L39.807 235.837C39.807 235.837 40.6037 238.253 47.6729 238.376C54.742 238.499 71.7537 238.515 71.7537 238.515C71.7537 238.515 76.4329 238.617 79.4549 235.955L88.7282 231.421L88.6061 230.47L30.1035 230.523Z" fill="#E0E0E0"/>
<path d="M71.0636 238.435H48.353V239.445H71.0636V238.435Z" fill="#E0E0E0"/>
<path d="M79.6142 235.911H79.5133H79.2106L78.0527 235.943L73.8038 236.024C70.1975 236.077 65.221 236.136 59.7292 236.141C54.2375 236.146 49.2503 236.109 45.6493 236.018C43.8488 235.975 42.3935 235.933 41.4004 235.879L40.2425 235.826H39.9398H39.8389H40.2425L41.4057 235.852C42.4095 235.89 43.8647 235.911 45.6546 235.943C49.2556 236.002 54.2321 236.029 59.7345 236.018C65.2369 236.007 70.2028 235.975 73.8038 235.949L78.0527 235.917H79.6142V235.911Z" fill="#263238"/>
<path d="M70.5323 238.434C70.5323 238.476 65.492 238.514 59.2832 238.514C53.0745 238.514 48.0342 238.476 48.0342 238.434C48.0342 238.391 53.0692 238.359 59.2832 238.359C65.4973 238.359 70.5323 238.391 70.5323 238.434Z" fill="#263238"/>
<path d="M88.5319 231.421C88.5319 231.464 75.4346 231.496 59.2833 231.496C43.132 231.496 30.0347 231.464 30.0347 231.421C30.0347 231.378 43.1267 231.346 59.2833 231.346C75.4399 231.346 88.5319 231.378 88.5319 231.421Z" fill="#263238"/>
<path d="M107.275 66.7594C107.155 73.9483 104.92 80.94 100.852 86.8503C96.7845 92.7606 91.0669 97.324 84.4223 99.9635C77.7778 102.603 70.5048 103.2 63.5232 101.679C56.5416 100.158 50.1649 96.5869 45.1996 91.418C40.2343 86.2491 36.9034 79.7142 35.6281 72.6399C34.3528 65.5655 35.1904 58.2693 38.0351 51.6741C40.8797 45.0789 45.6035 39.4809 51.6092 35.588C57.6149 31.6951 64.6326 29.6822 71.7749 29.8038C81.3511 29.9669 90.4708 33.9519 97.1281 40.8822C103.785 47.8126 107.435 57.1207 107.275 66.7594Z" fill="#FD9706"/>
<g opacity="0.3">
<path d="M107.275 66.7597C107.155 73.9486 104.92 80.9403 100.852 86.8506C96.7845 92.7609 91.0669 97.3244 84.4223 99.9638C77.7778 102.603 70.5048 103.2 63.5232 101.679C56.5416 100.158 50.1649 96.5873 45.1996 91.4184C40.2343 86.2495 36.9034 79.7146 35.6281 72.6402C34.3528 65.5658 35.1904 58.2697 38.0351 51.6745C40.8797 45.0793 45.6035 39.4812 51.6092 35.5883C57.6149 31.6954 64.6326 29.6825 71.7749 29.8042C81.3511 29.9673 90.4708 33.9522 97.1281 40.8826C103.785 47.8129 107.435 57.1211 107.275 66.7597Z" fill="black"/>
</g>
<path d="M94.1748 90.8651C108.376 76.5708 108.376 53.3953 94.1748 39.101C79.9732 24.8067 56.9477 24.8067 42.7461 39.101C28.5444 53.3953 28.5444 76.5708 42.7461 90.8651C56.9477 105.159 79.9732 105.159 94.1748 90.8651Z" fill="#FD9706"/>
<path d="M97.6157 79.4079C105.528 63.202 98.8895 43.6086 82.7886 35.6449C66.6877 27.6811 47.2213 34.3627 39.3091 50.5686C31.397 66.7745 38.0353 86.3679 54.1362 94.3316C70.2371 102.295 89.7035 95.6138 97.6157 79.4079Z" fill="white"/>
<path d="M100.944 65.5353C100.944 65.5353 100.944 65.3536 100.944 65.0007C100.944 64.6479 100.944 64.1294 100.896 63.4451C100.663 58.7783 99.4382 54.2161 97.3043 50.0663C95.1705 45.9165 92.1773 42.2755 88.5266 39.389C84.5598 36.2489 79.918 34.0868 74.9725 33.0756C70.7892 32.2237 66.4809 32.2019 62.2894 33.0114C60.81 33.3042 59.3516 33.6953 57.9236 34.1822C51.6536 36.374 46.2038 40.4512 42.3113 45.8624C38.4187 51.2735 36.2713 57.7575 36.1595 64.4372C36.0476 71.1168 37.9768 77.6699 41.686 83.21C45.3952 88.7501 50.7055 93.0098 56.8985 95.413C58.3031 95.9437 59.7401 96.383 61.2006 96.7281C62.626 97.0568 64.0723 97.2855 65.5292 97.4124C68.3158 97.6719 71.1242 97.5659 73.8837 97.097C78.8542 96.2395 83.5572 94.2259 87.6184 91.2166C93.537 86.8479 97.814 80.5931 99.7544 73.4685C100.272 71.5433 100.617 69.5753 100.785 67.5881C100.859 66.9092 100.854 66.3853 100.886 66.0378C100.918 65.6903 100.918 65.5032 100.918 65.5032C100.918 65.5032 100.918 66.2249 100.838 67.5881C100.694 69.5749 100.365 71.5437 99.8553 73.4685C97.9517 80.6422 93.6768 86.9492 87.7352 91.3502C83.6539 94.3801 78.9248 96.4067 73.9262 97.268C71.1485 97.7495 68.3201 97.8628 65.5133 97.6048C64.0462 97.4753 62.5894 97.2467 61.1528 96.9206C59.6791 96.5769 58.2296 96.1358 56.8136 95.6001C50.5559 93.193 45.1862 88.9051 41.4343 83.3191C37.6823 77.7331 35.7299 71.1199 35.8425 64.3781C35.9551 57.6362 38.1271 51.0928 42.0634 45.6368C45.9997 40.1808 51.5094 36.0769 57.8439 33.8828C59.2848 33.4184 60.7537 33.047 62.2416 32.7709C66.843 31.8721 71.5831 31.9847 76.1372 33.1012C80.6914 34.2176 84.952 36.3114 88.6275 39.2393C91.8999 41.8518 94.647 45.0687 96.7217 48.7174C99.2886 53.214 100.737 58.2686 100.944 63.4505C100.976 64.8457 100.944 65.5353 100.944 65.5353Z" fill="#263238"/>
<path d="M53.4409 108.739L55.183 98.5231L60.8819 100.608L56.548 109.749C56.3886 110.091 56.1176 110.367 55.7801 110.531C55.4427 110.696 55.0594 110.739 54.6944 110.653C54.2807 110.558 53.9194 110.306 53.6859 109.949C53.4524 109.593 53.3646 109.159 53.4409 108.739Z" fill="#FD9706"/>
<path d="M103.467 94.8513L97.6831 86.298L93.3545 90.5747L101.045 97.0751C101.332 97.3173 101.693 97.4535 102.068 97.4613C102.443 97.469 102.809 97.3479 103.106 97.1179C103.446 96.8609 103.674 96.4809 103.741 96.0581C103.809 95.6352 103.71 95.2025 103.467 94.8513Z" fill="#FD9706"/>
<path d="M58.1985 23.6038L56.5742 24.1252L58.8885 31.4286L60.5128 30.9072L58.1985 23.6038Z" fill="#FD9706"/>
<path d="M58.0118 20.6049L54.9958 21.5725C54.4005 21.7635 54.0718 22.404 54.2615 23.0032L54.5148 23.8028C54.7045 24.402 55.3409 24.7329 55.9362 24.5419L58.9521 23.5743C59.5474 23.3833 59.8762 22.7428 59.6864 22.1436L59.4332 21.344C59.2434 20.7448 58.607 20.4139 58.0118 20.6049Z" fill="#FD9706"/>
<path d="M67.7969 57.4092C67.4092 56.2171 68.6733 53.7955 68.583 51.5609C68.4927 49.3264 64.2066 40.1209 63.8826 39.4313C63.8022 39.2357 63.658 39.0735 63.4736 38.9715C63.4429 38.9617 63.4102 38.96 63.3786 38.9668C63.347 38.9735 63.3178 38.9884 63.2936 39.01C63.2695 39.0315 63.2514 39.059 63.2411 39.0898C63.2307 39.1206 63.2285 39.1535 63.2346 39.1854L66.193 48.3427C66.2184 48.4187 66.217 48.5012 66.1889 48.5762C66.1608 48.6512 66.1078 48.7142 66.0389 48.7544C65.9964 48.777 65.9494 48.7899 65.9013 48.7923C65.8532 48.7946 65.8052 48.7863 65.7606 48.768C65.716 48.7496 65.676 48.7217 65.6434 48.6861C65.6107 48.6505 65.5862 48.6081 65.5716 48.5619L62.4273 39.5489C62.3957 39.4532 62.3275 39.3741 62.2378 39.329C62.1482 39.2839 62.0444 39.2764 61.9493 39.3083C61.8543 39.3402 61.7757 39.4088 61.7308 39.4991C61.686 39.5893 61.6786 39.6938 61.7103 39.7895L64.504 48.8773C64.5305 48.9532 64.5296 49.0361 64.5014 49.1114C64.4733 49.1866 64.4196 49.2495 64.35 49.289C64.3078 49.3116 64.2612 49.3245 64.2134 49.3268C64.1657 49.3292 64.118 49.3208 64.0738 49.3024C64.0297 49.284 63.9901 49.256 63.958 49.2204C63.9258 49.1848 63.9019 49.1425 63.8879 49.0965L60.7915 40.0835C60.7524 39.9931 60.6813 39.9206 60.5919 39.8803C60.5025 39.84 60.4014 39.8347 60.3084 39.8654C60.2154 39.8962 60.1371 39.9608 60.0889 40.0466C60.0407 40.1325 60.0261 40.2333 60.0479 40.3294L62.8204 49.4173C62.8458 49.4932 62.8444 49.5757 62.8163 49.6507C62.7882 49.7257 62.7353 49.7887 62.6663 49.8289C62.6238 49.8515 62.5768 49.8644 62.5287 49.8668C62.4806 49.8691 62.4326 49.8609 62.388 49.8425C62.3435 49.8242 62.3034 49.7962 62.2708 49.7606C62.2381 49.725 62.2136 49.6826 62.199 49.6364L59.2406 40.4737C59.2284 40.4365 59.2057 40.4037 59.1753 40.3792C59.145 40.3547 59.1082 40.3395 59.0694 40.3356C59.0307 40.3316 58.9917 40.339 58.957 40.3569C58.9224 40.3748 58.8936 40.4023 58.8742 40.4363C58.7791 40.6284 58.7565 40.8487 58.8104 41.0564C58.9485 41.7995 60.8552 51.7801 62.0874 53.6458C63.3196 55.5115 65.7521 56.7196 66.1399 57.9224C66.4904 58.9916 73.209 82.3421 74.3775 86.3942C74.3998 86.4723 74.4376 86.545 74.4886 86.6081C74.5395 86.6711 74.6026 86.7232 74.674 86.7611C74.7454 86.799 74.8237 86.8221 74.9042 86.8288C74.9846 86.8356 75.0656 86.826 75.1423 86.8005L77.5854 86.004C77.663 85.9794 77.7347 85.9392 77.7964 85.8858C77.858 85.8324 77.9082 85.767 77.944 85.6935C77.9797 85.6201 78.0003 85.54 78.0044 85.4583C78.0085 85.3766 77.9961 85.2949 77.9678 85.2181C76.5126 81.2729 68.1475 58.4944 67.7969 57.4092Z" fill="#E0E0E0"/>
<path d="M88.0536 42.3021C88.0536 42.3021 84.7394 41.3559 80.5382 46.0442C76.3371 50.7324 70.6435 58.5587 70.5001 59.0291C70.1496 60.1518 71.0897 60.7184 71.5624 61.8464C71.8385 62.5093 71.9979 62.413 70.8401 64.0489C69.8044 65.5136 59.5273 77.2958 57.4293 79.7014C57.385 79.7569 57.3521 79.8207 57.3326 79.8892C57.3131 79.9576 57.3074 80.0293 57.3158 80.1001C57.3242 80.1708 57.3466 80.2391 57.3816 80.301C57.4166 80.3629 57.4635 80.4171 57.5196 80.4605L60.5948 82.6737C60.7095 82.7509 60.8497 82.7802 60.9855 82.7553C61.1214 82.7303 61.2422 82.6531 61.3224 82.54L74.4994 62.4665C74.4994 62.4665 88.0801 44.0716 88.2607 43.7188C88.4413 43.3659 88.9405 42.7458 88.0536 42.3021Z" fill="#E0E0E0"/>
<path d="M80.3101 11.5314C80.8114 10.6443 81.5905 9.94932 82.5257 9.55499C83.461 9.16066 84.4996 9.08921 85.4794 9.3518C86.4593 9.61438 87.3251 10.1962 87.9417 11.0064C88.5583 11.8166 88.8909 12.8096 88.8876 13.8301L80.3101 11.5314Z" fill="#FD9706"/>
<path d="M63.5322 21.01C63.5322 21.01 70.1393 7.78984 85.085 12.013C100.031 16.2362 99.2074 30.5951 99.2074 30.5951L63.5322 21.01Z" fill="#FD9706"/>
<path d="M99.4673 30.788C98.9362 32.6965 90.4968 32.071 80.5755 29.3874C70.6542 26.7038 63.0221 22.9725 63.5319 21.0694C64.0418 19.1663 72.4972 19.7864 82.4238 22.47C92.3504 25.1536 99.9772 28.8796 99.4673 30.788Z" fill="#263238"/>
<path d="M79.6248 21.7579L77.7021 30.1027L82.4663 31.0916L84.6014 23.089L79.6248 21.7579Z" fill="#FD9706"/>
<g opacity="0.3">
<path d="M63.5375 21.4741C63.5375 21.4741 72.6249 22.1477 75.5779 22.709C78.5309 23.2703 88.6965 25.9165 91.9841 27.2476C95.2718 28.5787 98.6178 31.5242 98.6178 31.5242L99.4676 30.7919C99.4676 30.7919 99.8022 29.8029 97.8052 28.6054C90.8561 24.7396 83.2917 22.1202 75.4505 20.8647C64.0845 19.1113 63.5694 20.5493 63.4419 21.271" fill="black"/>
</g>
<path d="M91.2193 14.7114C91.1928 14.7542 90.6085 14.3211 89.5994 13.7545C88.2835 13.0183 86.8951 12.4217 85.4567 11.9743C84.0197 11.5202 82.5314 11.2508 81.0272 11.1725C79.8747 11.1243 79.1577 11.2366 79.1523 11.1725C79.3112 11.1129 79.4774 11.0751 79.6463 11.0602C79.8431 11.0271 80.0418 11.0057 80.2411 10.9961C80.5041 10.9708 80.7683 10.9601 81.0325 10.964C82.5635 10.9895 84.0825 11.2399 85.5417 11.707C87.0009 12.158 88.3995 12.7883 89.7056 13.5834C90.1038 13.8233 90.4869 14.0875 90.8529 14.3746C90.9887 14.4708 91.1118 14.5839 91.2193 14.7114Z" fill="#263238"/>
<g opacity="0.3">
<path d="M81.3986 11.8214C78.5409 11.5806 75.6698 12.0876 73.0641 13.2931C70.4585 14.4986 68.2067 16.3617 66.5273 18.7014L70.7019 19.1558C72.7095 15.0556 76.8523 12.0192 81.3986 11.8214Z" fill="white"/>
</g>
<g opacity="0.3">
<path d="M85.8973 10.2747C85.2583 10.0561 84.5855 9.95475 83.9109 9.97538C83.2446 10.0862 82.604 10.3181 82.0201 10.6596C81.9936 10.6596 82.1423 10.4351 82.4609 10.2106C82.8857 9.92437 83.3742 9.74825 83.8829 9.69788C84.3916 9.64752 84.9048 9.72448 85.3768 9.92192C85.7326 10.0823 85.9132 10.2427 85.8973 10.2747Z" fill="white"/>
</g>
<g opacity="0.3">
<path d="M35.9191 77.6099C35.8657 77.5126 35.8212 77.4106 35.7863 77.3052L35.4517 76.4124C35.2673 75.9455 35.1078 75.4691 34.9737 74.9851C34.8143 74.4184 34.5913 73.7823 34.4426 73.0553C34.2938 72.3282 34.0814 71.5424 33.9486 70.6817C33.8158 69.8211 33.6831 68.8962 33.5768 67.9179C33.4008 65.7958 33.4008 63.6626 33.5768 61.5404C33.7757 59.4184 34.1524 57.3172 34.7028 55.2591C34.9737 54.3182 35.2339 53.4201 35.542 52.5862C35.85 51.7522 36.1474 51.0145 36.4396 50.3302C36.7317 49.646 37.0397 49.0579 37.2947 48.5287C37.5496 47.9995 37.7992 47.5558 38.0117 47.2029L38.5003 46.3797C38.5523 46.2836 38.6127 46.1923 38.6809 46.107C38.6492 46.2137 38.6046 46.3161 38.5481 46.4118L38.1073 47.2511C37.9108 47.6146 37.6717 48.0583 37.4327 48.5982C37.1937 49.1381 36.9016 49.7208 36.6201 50.4104C36.3386 51.1 36.0253 51.8378 35.7597 52.661C35.4942 53.4843 35.2286 54.3663 34.9471 55.3339C33.8555 59.4267 33.4852 63.6804 33.853 67.9019C33.9539 68.8695 34.0389 69.7943 34.1982 70.6443C34.3576 71.4943 34.4957 72.2962 34.655 73.0125C34.8143 73.7288 34.9949 74.3757 35.1436 74.9423C35.2923 75.509 35.4411 76.0115 35.5738 76.3857L35.8606 77.2891C35.8939 77.393 35.9136 77.5009 35.9191 77.6099Z" fill="white"/>
</g>
<path d="M85.7062 32.7705C85.5917 32.739 85.4811 32.6941 85.3769 32.6368L84.4793 32.1717L83.8261 31.851L83.0241 31.5088L82.1052 31.1186L81.043 30.7337C77.1854 29.3563 73.141 28.5811 69.0504 28.435C67.9883 28.3899 66.9246 28.4006 65.8637 28.4671C64.0006 28.5263 62.1499 28.7935 60.3454 29.2636C58.895 29.6121 57.4658 30.044 56.0646 30.5573C55.1174 30.8887 54.1884 31.2706 53.2815 31.7013C52.6548 32.006 52.3202 32.1931 52.3096 32.1717C52.3817 32.1117 52.46 32.0597 52.5433 32.0167C52.6973 31.9205 52.9257 31.7761 53.239 31.6158C54.1184 31.1463 55.0267 30.7338 55.9583 30.3809C57.3598 29.8416 58.793 29.3899 60.2498 29.0284C61.0783 28.8146 61.9635 28.6364 62.9054 28.4938C63.8723 28.3255 64.8507 28.2325 65.8318 28.2158C66.9121 28.1442 67.9954 28.1317 69.0769 28.1784C73.1934 28.3205 77.2605 29.1273 81.1227 30.568L82.1849 30.9743L83.1037 31.3912L83.8951 31.7494C84.1394 31.8724 84.3519 31.9953 84.5484 32.0969L85.4354 32.5834C85.5298 32.6394 85.6203 32.7019 85.7062 32.7705Z" fill="#263238"/>
<path d="M58.7306 23.8531C58.3748 24.1119 57.9698 24.2939 57.5409 24.3877C57.1404 24.5616 56.7076 24.6473 56.2715 24.639C56.6264 24.3787 57.0317 24.1966 57.4612 24.1044C57.8617 23.9305 58.2945 23.8449 58.7306 23.8531Z" fill="#263238"/>
<path d="M24.0276 32.2359C23.4893 31.376 23.2474 30.3616 23.3394 29.3495C23.4314 28.3374 23.8522 27.384 24.5366 26.6367C25.221 25.8894 26.1309 25.3899 27.1257 25.2154C28.1204 25.0409 29.1446 25.2011 30.0398 25.6713L24.0276 32.2359Z" fill="#FD9706"/>
<path d="M24.5851 51.6134C24.5851 51.6134 15.997 39.5906 26.6724 28.2148C37.3479 16.8389 49.5795 24.2695 49.5795 24.2695L24.5851 51.6134Z" fill="#FD9706"/>
<path d="M49.7337 24.2759C51.1783 25.6177 46.7222 32.8292 39.7858 40.3828C32.8495 47.9365 26.0565 52.9776 24.6171 51.6358C23.1778 50.294 27.6498 43.0825 34.5543 35.5289C41.4589 27.9752 48.2943 22.9341 49.7337 24.2759Z" fill="#263238"/>
<path d="M32.7061 37.6135L39.1485 43.2052L42.2396 39.4204L36.1902 33.7966L32.7061 37.6135Z" fill="#FD9706"/>
<g opacity="0.3">
<path d="M24.9942 51.8178C24.9942 51.8178 29.8114 44.0289 31.6756 41.6607C33.5399 39.2926 40.5931 31.4609 43.2965 29.1516C45.9999 26.8422 50.0311 25.1101 50.0311 25.1101L49.9301 24.5221L49.7814 24.2976C49.7814 24.2976 49.075 23.501 46.8019 24.8803C44.8155 26.0831 36.8062 31.6213 29.9867 40.9177C23.1671 50.214 24.1869 51.3634 24.7605 51.8071" fill="black"/>
</g>
<path d="M31.8987 24.0027C31.8987 24.0455 31.272 24.3662 30.3054 25.0024C29.0445 25.8324 27.8733 26.7928 26.8106 27.8677C25.7424 28.9366 24.8143 30.1384 24.0488 31.4441C23.4699 32.4491 23.2309 33.1334 23.1831 33.1173C23.2063 32.9483 23.251 32.7831 23.3159 32.6255C23.3776 32.443 23.4503 32.2645 23.5336 32.0909C23.6346 31.8464 23.7481 31.6073 23.8736 31.3746C24.6029 30.0216 25.5264 28.7841 26.6141 27.702C27.6879 26.6102 28.8921 25.6567 30.1992 24.8634C30.5932 24.6187 31.0031 24.4008 31.426 24.2112C31.5734 24.1203 31.7325 24.0502 31.8987 24.0027Z" fill="#263238"/>
<path d="M45.1076 36.6626C45.1076 36.7 44.5181 37.1972 43.5674 38.106C42.3346 39.2603 41.1779 40.4942 40.1045 41.7999C39.0359 43.11 38.0817 44.5105 37.2524 45.9857C36.6151 47.119 36.2964 47.8621 36.2539 47.8407C36.2932 47.656 36.3538 47.4766 36.4345 47.3061C36.6231 46.8243 36.8376 46.3532 37.0771 45.8948C37.8668 44.3756 38.8101 42.9425 39.8921 41.6182C40.9713 40.2985 42.158 39.0719 43.4399 37.951C43.9286 37.5233 44.3428 37.1919 44.6349 36.978C44.7778 36.8521 44.9368 36.746 45.1076 36.6626Z" fill="#263238"/>
<g opacity="0.3">
<path d="M25.2652 30.7757C23.7232 33.2123 22.8332 36.0087 22.6815 38.8936C22.5298 41.7785 23.1216 44.6539 24.3995 47.2408L26.7417 43.7286C24.0702 40.0239 23.3266 34.908 25.2652 30.7757Z" fill="white"/>
</g>
<g opacity="0.3">
<path d="M25.3235 26.5257C24.8356 26.9952 24.4329 27.547 24.1338 28.1561C23.9249 28.8027 23.8314 29.4814 23.8577 30.1608C23.8258 30.1608 23.7196 29.9523 23.6718 29.5621C23.616 29.0499 23.6872 28.5319 23.8791 28.0542C24.0709 27.5766 24.3774 27.1542 24.7712 26.825C25.0739 26.5845 25.3023 26.4989 25.3235 26.5257Z" fill="white"/>
</g>
<path d="M96.6258 68.518C95.8663 68.4217 95.2661 68.2293 95.282 68.0903C95.298 67.9513 95.93 67.8979 96.6895 67.9727C97.449 68.0475 98.0492 68.2453 98.0332 68.4057C98.0173 68.5661 97.3853 68.6142 96.6258 68.518Z" fill="#263238"/>
<path d="M85.8976 87.5272C85.4249 86.9178 85.1381 86.3565 85.2496 86.2656C85.3612 86.1747 85.8392 86.5917 86.3119 87.1851C86.7846 87.7784 87.082 88.3451 86.9598 88.4467C86.8377 88.5482 86.365 88.1313 85.8976 87.5272Z" fill="#263238"/>
<path d="M64.9499 93.3328C65.0455 92.5684 65.2367 91.9643 65.3801 91.9803C65.5235 91.9964 65.5713 92.6272 65.4917 93.3916C65.412 94.1561 65.2208 94.7602 65.0615 94.7441C64.9021 94.7281 64.8543 94.0919 64.9499 93.3328Z" fill="#263238"/>
<path d="M46.0687 82.5292C46.6689 82.0588 47.2319 81.7648 47.3169 81.8771C47.4018 81.9893 46.9982 82.4704 46.4033 82.9462C45.8085 83.422 45.2508 83.7214 45.1499 83.5984C45.049 83.4755 45.4633 83.0211 46.0687 82.5292Z" fill="#263238"/>
<path d="M40.3008 61.4508C41.0603 61.547 41.6605 61.7395 41.6446 61.8785C41.6286 62.0175 40.9966 62.0709 40.2371 61.9907C39.4776 61.9105 38.8774 61.7181 38.8934 61.5631C38.9093 61.408 39.5413 61.3546 40.3008 61.4508Z" fill="#263238"/>
<path d="M51.0189 42.4407C51.4916 43.0501 51.7784 43.6114 51.6669 43.7023C51.5553 43.7932 51.0773 43.3762 50.6046 42.7828C50.1319 42.1894 49.8345 41.6174 49.9567 41.5212C50.0788 41.425 50.5622 41.858 51.0189 42.4407Z" fill="#263238"/>
<path d="M71.9766 36.6354C71.881 37.3999 71.6898 38.0039 71.5464 37.9879C71.403 37.9719 71.3552 37.341 71.4349 36.5766C71.5145 35.8121 71.7057 35.2027 71.8651 35.2241C72.0244 35.2455 72.0722 35.8763 71.9766 36.6354Z" fill="#263238"/>
<path d="M90.8527 47.4391C90.2525 47.9096 89.6895 48.1982 89.6045 48.0913C89.5196 47.9844 89.9232 47.4926 90.5181 47.0222C91.1129 46.5517 91.6706 46.2417 91.7715 46.37C91.8724 46.4983 91.4635 46.9687 90.8527 47.4391Z" fill="#263238"/>
<path d="M23.4646 21.2661C23.4205 21.3438 23.367 21.4156 23.3052 21.4799L22.806 22.0786C22.5375 22.372 22.284 22.6789 22.0465 22.9981C21.765 23.3723 21.4144 23.7786 21.1011 24.2704L20.57 25.0349C20.3947 25.3022 20.2354 25.5962 20.0388 25.8902C19.6671 26.4782 19.3537 27.1465 18.9766 27.8361C18.2664 29.3637 17.6941 30.9524 17.2664 32.5832C16.8849 34.225 16.6485 35.8977 16.56 37.5815C16.56 38.3566 16.5016 39.0944 16.56 39.7893C16.56 40.1314 16.56 40.4682 16.6025 40.789C16.645 41.1097 16.6663 41.4144 16.6928 41.7085C16.7353 42.2965 16.8468 42.815 16.9159 43.2801C16.9721 43.6762 17.0501 44.0688 17.1496 44.4562L17.3089 45.1993C17.3335 45.2862 17.346 45.3762 17.3461 45.4666C17.3034 45.3879 17.273 45.3032 17.2558 45.2153L17.0433 44.4829C16.925 44.0973 16.8309 43.7045 16.7619 43.3069C16.6479 42.7771 16.5611 42.2418 16.5016 41.7031C16.4644 41.4091 16.4273 41.099 16.3901 40.7783C16.3529 40.4575 16.3476 40.1208 16.3263 39.7679C16.2732 39.073 16.3263 38.3246 16.3263 37.5387C16.3994 35.8397 16.6342 34.1516 17.0274 32.4976C17.4615 30.8424 18.0482 29.2317 18.7801 27.6864C19.1413 26.9914 19.4706 26.3232 19.8423 25.7352C20.0229 25.4412 20.1876 25.1471 20.3735 24.8799L20.9046 24.1207C21.2339 23.6289 21.595 23.228 21.8871 22.8645C22.1373 22.55 22.405 22.2502 22.6891 21.9664C22.9069 21.7526 23.0821 21.5708 23.2202 21.4318C23.2941 21.366 23.3762 21.3103 23.4646 21.2661Z" fill="#263238"/>
<path d="M15.2535 29.3655C15.3278 29.4029 14.818 30.4881 14.4143 31.8941C14.0107 33.3 13.8832 34.4922 13.777 34.4868C13.7251 33.5799 13.8514 32.6716 14.1488 31.8139C14.3558 30.9334 14.731 30.1018 15.2535 29.3655Z" fill="#263238"/>
<path d="M105.002 26.2323C104.909 25.963 104.842 25.6856 104.8 25.4038C104.747 25.1365 104.683 24.8104 104.577 24.4362C104.47 24.062 104.386 23.6289 104.231 23.1639C104.077 22.6988 103.934 22.1909 103.7 21.6563C103.467 21.1218 103.265 20.5551 103.01 19.9671C102.423 18.6995 101.742 17.4789 100.97 16.3159C100.182 15.1672 99.3108 14.079 98.3626 13.0603C97.9059 12.6059 97.4863 12.1622 97.0561 11.788C96.6259 11.4138 96.2275 11.0609 95.8505 10.7562C95.4734 10.4515 95.1175 10.2217 94.7882 9.95971C94.4589 9.69777 94.204 9.54274 93.9756 9.39306C93.7308 9.25099 93.4997 9.08635 93.2852 8.90124C93.5426 9.01604 93.7911 9.15006 94.0287 9.30218C94.3193 9.46534 94.6012 9.64378 94.8732 9.83676C95.1919 10.0613 95.569 10.2965 95.9354 10.6066C96.3019 10.9166 96.748 11.232 97.1729 11.6223C97.5978 12.0125 98.044 12.4348 98.506 12.8892C99.4786 13.9068 100.367 15.0028 101.162 16.1662C101.939 17.3424 102.621 18.5795 103.201 19.8655C103.451 20.4642 103.7 21.0309 103.876 21.5815C104.051 22.1321 104.226 22.6507 104.354 23.1157C104.481 23.5808 104.582 24.0245 104.667 24.4041C104.752 24.7836 104.805 25.1204 104.842 25.3931C104.918 25.6681 104.971 25.9488 105.002 26.2323Z" fill="#263238"/>
<path d="M105.336 20.6089C105.185 19.8366 104.975 19.0771 104.71 18.3369C104.358 17.6292 103.955 16.9485 103.504 16.3001C104.176 16.7774 104.686 17.4512 104.964 18.23C105.326 18.9665 105.455 19.7963 105.336 20.6089Z" fill="#263238"/>
<path d="M48.99 100.737C48.8873 100.72 48.7873 100.689 48.6925 100.646L47.8481 100.336C47.4033 100.181 46.9671 100.003 46.5415 99.8012C46.0369 99.566 45.4793 99.3201 44.8472 98.9726L43.8859 98.438C43.5513 98.2563 43.222 98.0318 42.8715 97.8179C42.1651 97.3956 41.4587 96.8717 40.7045 96.3371C37.4766 93.9273 34.7121 90.9455 32.5466 87.5379C32.0686 86.7414 31.5959 85.9983 31.2294 85.2553C31.0382 84.8918 30.8417 84.5443 30.6983 84.1861C30.5549 83.8279 30.3902 83.5019 30.2415 83.1811C29.9388 82.5503 29.737 81.9462 29.5351 81.4277C29.3594 80.9852 29.207 80.5338 29.0784 80.0752L28.8234 79.2038C28.7919 79.1044 28.7688 79.0025 28.7544 78.8991C28.809 78.9888 28.8502 79.086 28.8765 79.1878L29.1793 80.0378C29.3014 80.412 29.4608 80.861 29.6785 81.3689C29.8963 81.8767 30.1087 82.4755 30.4221 83.1009C30.5708 83.4163 30.7248 83.7478 30.8895 84.0899C31.0541 84.432 31.256 84.7742 31.4472 85.1591C31.8189 85.8861 32.2969 86.6238 32.775 87.4096C33.8697 89.0692 35.0914 90.6403 36.429 92.1086C37.7974 93.5613 39.2786 94.902 40.8586 96.118C41.6021 96.6525 42.2979 97.1871 42.983 97.6094C43.3283 97.8286 43.6522 98.0531 43.9815 98.2456L44.9322 98.7802C45.5271 99.1383 46.1007 99.3949 46.5946 99.6462C47.0886 99.8974 47.5188 100.09 47.8799 100.24L48.6978 100.603C48.7994 100.638 48.8972 100.683 48.99 100.737Z" fill="#263238"/>
<path d="M36.891 98.5941C35.7507 97.6587 34.6688 96.6535 33.6512 95.5844C32.5699 94.5798 31.5518 93.5086 30.6025 92.3769C31.7455 93.3091 32.8277 94.3144 33.8424 95.3866C34.9236 96.3912 35.9418 97.4624 36.891 98.5941Z" fill="#263238"/>
<path d="M107.849 49.2086C107.912 49.3042 107.966 49.4063 108.008 49.5134L108.412 50.4114C108.592 50.8017 108.799 51.2828 109.001 51.8548C109.203 52.4268 109.474 53.0683 109.686 53.8007L110.047 54.95C110.17 55.351 110.265 55.7733 110.382 56.2117C110.626 57.0777 110.802 58.0239 111.003 59.0182C111.796 63.3519 111.911 67.7835 111.343 72.1528C111.189 73.1525 111.062 74.1094 110.865 74.9861C110.77 75.4298 110.701 75.8575 110.595 76.2638C110.488 76.6701 110.393 77.0549 110.297 77.4292C110.122 78.1722 109.893 78.8298 109.713 79.4071C109.532 79.9845 109.357 80.4763 109.182 80.8772L108.826 81.7967C108.789 81.9047 108.741 82.0086 108.682 82.1067C108.699 81.993 108.73 81.8817 108.773 81.7753L109.081 80.8451C109.224 80.4388 109.389 79.947 109.548 79.3643C109.708 78.7817 109.931 78.1241 110.079 77.3757C110.17 77.0068 110.265 76.6166 110.361 76.2157C110.456 75.8147 110.525 75.3817 110.616 74.9434C110.802 74.0666 110.918 73.1151 111.062 72.1208C111.319 69.9498 111.426 67.7634 111.381 65.5775C111.311 63.3928 111.093 61.2155 110.727 59.061C110.531 58.072 110.366 57.1311 110.132 56.2651C110.021 55.8321 109.931 55.4098 109.814 55.0088C109.697 54.6079 109.585 54.2284 109.474 53.8595C109.272 53.1271 109.022 52.4803 108.831 51.9083C108.64 51.3363 108.449 50.8391 108.3 50.4542C108.151 50.0693 108.04 49.7753 107.944 49.5401C107.899 49.4341 107.867 49.3227 107.849 49.2086Z" fill="#263238"/>
<path d="M114.222 58.3555C114.304 58.5357 114.361 58.7263 114.392 58.9221C114.482 59.2856 114.594 59.8256 114.705 60.4884C115.281 63.9793 115.272 67.5425 114.679 71.0304C114.567 71.6986 114.456 72.2332 114.36 72.602C114.324 72.7948 114.267 72.983 114.19 73.1633C114.142 73.1633 114.307 72.3347 114.487 71.025C114.723 69.2868 114.845 67.535 114.854 65.7808C114.855 64.0289 114.742 62.2788 114.514 60.5419C114.317 59.1841 114.158 58.3661 114.222 58.3555Z" fill="#263238"/>
<path d="M53.0956 25.6491C53.0956 25.6491 52.8301 25.4941 52.5645 25.0878C52.2336 24.5526 52.0793 23.9258 52.1237 23.297C52.1656 22.6657 52.4034 22.0636 52.8035 21.5756C53.1063 21.2121 53.3718 21.0411 53.3931 21.0945C53.4143 21.148 53.2072 21.319 52.9575 21.6932C52.6262 22.1719 52.4308 22.7325 52.3924 23.3146C52.354 23.8968 52.4741 24.4784 52.7398 24.997C52.9416 25.3979 53.1434 25.6171 53.0956 25.6491Z" fill="#263238"/>
<path d="M60.972 24.5957C61.1502 24.0154 61.2607 23.4162 61.3013 22.8102C61.2537 22.202 61.1379 21.6013 60.9561 21.0193C60.9879 21.0193 61.1366 21.1637 61.2853 21.4791C61.4795 21.8936 61.5793 22.3465 61.5775 22.8048C61.5855 23.2643 61.4892 23.7196 61.296 24.1359C61.1473 24.4567 60.9985 24.6171 60.972 24.5957Z" fill="#263238"/>
<path d="M43.5514 27.1293C43.3766 27.3101 43.1845 27.473 42.9778 27.6158C42.6007 27.9098 42.059 28.3481 41.3844 28.8988C39.6716 30.3401 38.0353 31.8711 36.4822 33.4855C34.6605 35.3725 33.1043 37.1741 31.989 38.4891L30.6771 40.0501C30.5185 40.2459 30.3405 40.425 30.146 40.5847C30.2665 40.3637 30.4069 40.1543 30.5656 39.9592C30.8524 39.5743 31.2773 39.0184 31.8137 38.3555C32.8759 37.0083 34.4268 35.1801 36.2592 33.2877C37.8158 31.6617 39.4783 30.1419 41.2357 28.7384C41.9156 28.2038 42.4732 27.7868 42.8716 27.5195C43.085 27.3674 43.3127 27.2367 43.5514 27.1293Z" fill="#263238"/>
<path d="M91.044 25.3131C90.8614 25.2835 90.683 25.2314 90.5129 25.1581L89.0683 24.6609C87.8414 24.2333 86.1524 23.6613 84.2882 23.0893C82.424 22.5173 80.6713 22.0736 79.4073 21.7849C78.1432 21.4962 77.3678 21.3412 77.3731 21.2984C77.5618 21.2852 77.7514 21.2997 77.9361 21.3412C78.2972 21.3839 78.8124 21.4695 79.4497 21.5924C80.7244 21.833 82.4718 22.2553 84.3626 22.822C86.2534 23.3886 87.9476 24.0034 89.1426 24.4738C89.7481 24.709 90.2314 24.9122 90.566 25.0565C90.734 25.1248 90.8942 25.2108 91.044 25.3131Z" fill="#263238"/>
<path d="M52.363 56.4408C52.5565 55.9907 52.8478 55.5899 53.2155 55.2679C53.5831 54.946 54.0178 54.7111 54.4875 54.5805C55.5072 54.2526 56.1286 54.4433 56.3517 55.1525C56.4993 55.6098 56.5268 56.0979 56.4314 56.5691C56.3319 57.0345 56.1325 57.4724 55.8471 57.8521C55.2219 58.6281 54.4559 59.2776 53.5899 59.7659C54.0095 61.9416 54.121 63.5561 53.9404 64.6092C55.1762 64.6306 56.0047 64.6306 56.4261 64.6092C56.859 64.5845 57.2872 64.5055 57.7007 64.374C57.89 64.3308 58.0608 64.2283 58.1886 64.0814C58.3165 63.9345 58.3948 63.7506 58.4124 63.5561C58.4602 63.1551 58.5187 62.9413 58.593 62.9199C58.6674 62.8985 58.8373 62.9199 58.8958 63.1231C58.9853 63.3975 59.0165 63.6879 58.9872 63.9752C58.9579 64.2626 58.8688 64.5405 58.7258 64.791C58.4809 65.2824 58.0534 65.6569 57.5361 65.8334C57.0651 65.9951 56.5664 66.0588 56.0702 66.0205L55.1886 65.9457L54.4238 65.8441L53.6218 65.7425C53.4581 66.0656 53.2288 66.3506 52.9489 66.5789C52.6689 66.8073 52.3445 66.974 51.9965 67.0683C51.8415 67.1185 51.6781 67.1372 51.5159 67.1234C51.3536 67.1097 51.1957 67.0637 51.0512 66.9881C50.9043 66.9208 50.7731 66.8232 50.666 66.7017C50.559 66.5801 50.4785 66.4373 50.4298 66.2824C50.2067 65.5875 50.4935 65.1117 51.2795 64.8605C51.7667 64.729 52.2678 64.6572 52.772 64.6466C52.7001 63.2275 52.5225 61.8158 52.2409 60.4234C52.1134 60.4769 51.9328 60.541 51.7097 60.6159C51.4867 60.6907 51.3645 60.6854 51.338 60.6159C51.2689 60.386 51.5345 60.1401 52.1453 59.8728C51.8764 58.7325 51.9523 57.5374 52.363 56.4408ZM52.6233 65.6356C52.1453 65.5603 51.6598 65.5478 51.1786 65.5982C51.1433 65.6043 51.1099 65.6187 51.0811 65.6402C51.0523 65.6617 51.029 65.6897 51.0129 65.7219C50.9969 65.7542 50.9886 65.7898 50.9888 65.8259C50.989 65.862 50.9976 65.8975 51.014 65.9296C51.042 66.0157 51.0898 66.094 51.1535 66.1581C51.2171 66.2222 51.2949 66.2703 51.3805 66.2985C51.59 66.3735 51.8189 66.3735 52.0284 66.2985C52.1672 66.2364 52.2912 66.1452 52.392 66.0308C52.4928 65.9165 52.568 65.7817 52.6126 65.6356H52.6233ZM55.1142 57.7345C55.2951 57.4686 55.4115 57.1637 55.4539 56.8443C55.4963 56.5249 55.4637 56.1999 55.3585 55.8955C55.1514 55.2327 54.8274 54.9761 54.376 55.1204C53.3952 55.4376 53.0942 56.8043 53.4731 59.2206C54.1261 58.8585 54.6877 58.35 55.1142 57.7345Z" fill="#263238"/>
<path d="M58.7948 63.1318L58.2637 61.0469C57.8494 59.7425 57.6848 59.0102 57.7697 58.8498C57.9113 58.5904 58.0692 58.3405 58.2424 58.1014C58.4761 57.7646 58.662 57.5668 58.7736 57.5294C58.8851 57.492 59.0126 57.4813 59.0604 57.5294C59.1366 57.6049 59.1884 57.7017 59.2091 57.8074C59.3762 58.3573 59.4304 58.9357 59.3684 59.5073C59.4955 60.4712 59.6961 61.4238 59.9686 62.3566C60.1969 63.073 60.4253 63.3991 60.659 63.3242C60.8927 63.2494 61.1901 62.8859 61.4079 62.2551C61.6661 61.4323 61.8126 60.5781 61.8434 59.7158C61.6559 59.0434 61.535 58.354 61.4823 57.6577C61.5737 57.4194 61.6838 57.1888 61.8115 56.9681C61.9141 56.7125 62.1019 56.5008 62.3427 56.3693C62.5179 56.3159 62.6826 56.519 62.826 56.9788C62.8904 57.2239 62.9331 57.4744 62.9534 57.7272C62.9953 58.0053 62.9953 58.2883 62.9534 58.5665C62.9269 58.9514 63.1978 60.0259 63.7554 61.7739C63.8617 62.1054 63.9519 62.2551 64.021 62.2337C64.2228 62.1535 64.4246 61.806 64.6318 61.1645C64.8598 60.4171 65.0146 59.649 65.0939 58.8712C65.0988 58.3911 65.1925 57.9162 65.37 57.4706C65.4497 57.4706 65.5028 57.4706 65.5347 57.5828C65.6529 58.1757 65.6529 58.7862 65.5347 59.379C65.2266 61.7312 64.7486 63.0142 64.09 63.228C63.7187 63.3753 63.3089 63.3922 62.9269 63.2761C62.8154 63.2173 62.6879 62.9714 62.5498 62.533C62.4117 62.0947 62.3055 61.635 62.1727 61.1004C62.0929 61.879 61.9034 62.6422 61.6097 63.367C61.5156 63.6146 61.3689 63.8385 61.1799 64.0231C60.991 64.2078 60.7643 64.3487 60.5156 64.4362C60.3477 64.5189 60.161 64.5555 59.9745 64.5424C59.788 64.5292 59.6082 64.4668 59.4534 64.3613C59.1317 64.0158 58.9048 63.5921 58.7948 63.1318Z" fill="#263238"/>
<path d="M67.0323 61.1491L67.2341 61.6837C67.3403 62.0401 67.2978 62.2432 67.1066 62.2931C66.8224 62.3818 66.5277 62.4321 66.2303 62.4428C65.9382 62.4428 65.7682 62.3787 65.7257 62.2397C65.6832 62.1007 65.5611 61.6089 65.3699 60.7642C65.1787 59.9196 65.014 59.2888 64.8813 58.8772L64.5413 57.808C64.379 57.4579 64.3235 57.0672 64.382 56.6854C64.5274 56.4306 64.687 56.1843 64.86 55.9477C65.099 55.6162 65.2849 55.4131 65.423 55.4131C65.5611 55.4131 65.6567 55.365 65.7098 55.4131C65.782 55.4823 65.8319 55.5717 65.8532 55.6697C66.0547 56.297 66.127 56.9591 66.0656 57.6156C66.225 58.3266 66.3471 58.8184 66.4321 59.0857C66.4321 59.0001 66.5808 58.503 66.8039 57.5995C66.9602 56.9017 67.1752 56.2186 67.4465 55.5574C67.5634 55.2064 67.8135 54.9162 68.1423 54.7502C68.393 54.6666 68.6657 54.6799 68.9071 54.7876C69.0253 54.8325 69.1318 54.904 69.2183 54.9967C69.3048 55.0893 69.3692 55.2007 69.4064 55.3222C69.6411 56.1205 69.8343 56.9306 69.9853 57.7492C70.2031 58.8184 70.3518 59.5026 70.4421 59.7753C70.5323 60.0479 70.6067 60.1762 70.6811 60.1548C70.8829 60.0746 71.0847 59.7272 71.2865 59.0857C71.5072 58.3481 71.6566 57.5908 71.7327 56.8244C71.8389 55.9156 71.9345 55.4505 72.0142 55.4238C72.0938 55.3971 72.1469 55.4238 72.1788 55.5307C72.2908 56.1241 72.2908 56.7335 72.1788 57.3269C71.8708 59.6862 71.3892 60.9692 70.7342 61.1759C70.3621 61.327 69.9499 61.3458 69.5657 61.2293C69.4559 61.1723 69.3444 60.9638 69.2311 60.6039C69.1143 60.2457 68.9655 59.647 68.7743 58.813C68.5831 57.9791 68.4238 57.3643 68.2963 56.9634C68.1689 56.5624 68.0361 56.3807 67.898 56.4288C67.7599 56.4769 67.5209 57.0061 67.1916 58.0325C66.9482 58.64 66.8013 59.2822 66.7561 59.9356C66.8162 60.3468 66.9085 60.7526 67.0323 61.1491Z" fill="#263238"/>
<path d="M74.5159 54.9434L74.3672 53.9651C74.3267 53.8308 74.2401 53.7152 74.1229 53.639C74.0697 53.5987 74.0075 53.5722 73.9417 53.5619C73.8759 53.5517 73.8086 53.558 73.7458 53.5802C73.2944 53.7246 73.0129 54.1843 72.9013 54.9648C72.7844 55.6675 72.828 56.3878 73.0288 57.071C73.1717 57.6103 73.4713 58.0943 73.8892 58.4609C74.0361 58.5991 74.2159 58.6968 74.4113 58.7446C74.6067 58.7924 74.8111 58.7886 75.0046 58.7336C75.3543 58.6284 75.6698 58.4309 75.9181 58.1616C76.1674 57.8706 76.3601 57.5352 76.4864 57.1726C76.7881 56.2978 76.9842 55.3896 77.0706 54.4676C77.0706 54.2164 77.1237 54.0346 77.145 53.933C77.1662 53.8315 77.214 53.7513 77.2777 53.7299C77.3415 53.7085 77.3946 53.7299 77.4265 53.8422C77.5607 54.3668 77.5734 54.9155 77.4636 55.4459C77.3627 56.0928 77.2671 56.6006 77.1768 56.9588C77.0671 57.3593 76.9268 57.7507 76.7573 58.1295C76.5797 58.5476 76.313 58.9213 75.9762 59.2242C75.6394 59.5272 75.2407 59.7521 74.808 59.8829C74.5115 59.9989 74.1908 60.0381 73.8754 59.997C73.5599 59.9559 73.2597 59.8358 73.0023 59.6477C72.5131 59.3038 72.1493 58.8081 71.9666 58.2364C71.5275 56.8465 71.4921 55.6936 71.8604 54.7777C72.0204 54.3439 72.2783 53.9535 72.6138 53.6372C72.9493 53.3208 73.3532 53.0872 73.7936 52.9548C74.1201 52.8284 74.4816 52.8284 74.808 52.9548C74.932 53.0079 75.0434 53.0868 75.1349 53.1863C75.2265 53.2858 75.2961 53.4036 75.3392 53.5321C75.4858 53.8951 75.5155 54.2952 75.4241 54.6761C75.3874 54.803 75.3195 54.9185 75.2267 55.0119C75.1338 55.1054 75.0191 55.1737 74.893 55.2107C74.7284 55.2588 74.5903 55.1733 74.5159 54.9434Z" fill="#263238"/>
<path d="M79.0624 57.2897L79.2642 57.8243C79.3704 58.1664 79.3279 58.3588 79.1314 58.4283C78.8503 58.5226 78.5566 58.573 78.2604 58.578C77.9683 58.578 77.7983 58.5192 77.7558 58.3802C77.7133 58.2412 77.5912 57.7494 77.4 56.9048C77.2088 56.0601 77.0388 55.4293 76.9113 55.0124L76.5714 53.9432C75.5835 50.8213 75.5056 48.6562 76.3377 47.448C76.5034 47.1985 76.746 47.0106 77.0282 46.9135C77.1503 46.8707 77.3097 46.9669 77.5168 47.1968C77.7608 47.4833 77.9419 47.8185 78.0479 48.1804C78.3736 49.1851 78.5104 50.242 78.4516 51.297C78.4228 52.1255 78.2871 52.9468 78.0479 53.7401C78.1329 54.0501 78.2763 54.5312 78.4781 55.1727C78.5047 55.0872 78.6268 54.59 78.8499 53.6866C79.0037 52.9881 79.2188 52.3048 79.4926 51.6445C79.705 51.1901 79.9334 50.9175 80.1883 50.8373C80.439 50.7536 80.7117 50.767 80.9531 50.8747C81.0707 50.9206 81.1766 50.9925 81.263 51.085C81.3494 51.1775 81.4141 51.2883 81.4524 51.4093C81.6879 52.2056 81.8811 53.014 82.0313 53.8309C82.2491 54.9001 82.3978 55.5897 82.4828 55.8623C82.5677 56.135 82.6527 56.2633 82.7218 56.2419C82.9289 56.1617 83.1307 55.8089 83.3325 55.1727C83.5595 54.425 83.7143 53.657 83.7946 52.8794C83.9008 51.9706 83.9964 51.5055 84.0761 51.4788C84.1558 51.4521 84.2089 51.4788 84.2408 51.5857C84.3552 52.1789 84.3552 52.7887 84.2408 53.3819C83.9327 55.7412 83.4529 57.0242 82.8014 57.2309C82.4293 57.382 82.0172 57.4008 81.633 57.2843C81.5197 57.2273 81.4081 57.0188 81.2984 56.6589C81.1815 56.2954 81.0275 55.702 80.8416 54.868C80.6557 54.0341 80.4911 53.4193 80.3636 53.0184C80.2361 52.6174 80.1034 52.4357 79.9653 52.4838C79.8272 52.5319 79.5882 53.0665 79.2589 54.0875C79.0155 54.695 78.8685 55.3372 78.8234 55.9907C78.8667 56.4296 78.9467 56.8642 79.0624 57.2897ZM77.6655 48.7738C77.5062 48.2392 77.3575 48.0254 77.2247 48.0682C77.0069 48.1377 77.0069 48.8861 77.2247 50.3027C77.3469 51.0565 77.5274 51.9065 77.7824 52.8847C78.0408 51.5222 78.0009 50.1193 77.6655 48.7738Z" fill="#263238"/>
<path d="M53.0161 73.1089L49.6117 74.1781L48.8203 71.6762L58.7469 68.4687L59.5436 70.9706L56.155 72.0397L58.8956 80.6946L55.7567 81.7049L53.0161 73.1089Z" fill="#263238"/>
<path d="M59.9209 68.1313L63.0545 67.1263L66.5917 78.283L63.4581 79.2934L59.9209 68.1313Z" fill="#263238"/>
<path d="M78.8336 74.3537L76.9269 68.4733L75.6045 74.204L74.2076 74.6477L69.9003 70.9056L71.7326 76.6363L68.8327 77.5665L65.3008 66.4098L67.882 65.5812L73.8146 70.772L75.5779 63.1114L78.1591 62.2829L81.7229 73.4289L78.8336 74.3537Z" fill="#263238"/>
<path d="M92.0585 67.4263L92.834 69.864L83.9484 72.7187L80.4111 61.562L89.1055 58.7715L89.881 61.2092L84.2883 63.0054L84.8831 64.8871L89.8119 63.2833L90.5608 65.6409L85.632 67.2446L86.28 69.2867L92.0585 67.4263Z" fill="#263238"/>
<path d="M175.269 126.756C179.055 107.768 184.214 89.0824 190.703 70.8496L201.968 56.3251C206.817 55.0314 212.15 57.1858 215.538 60.9064C218.927 64.6271 220.578 69.6736 221.125 74.6933C221.673 79.713 221.216 84.7755 220.881 89.8166C220.127 101.289 220.026 112.969 216.659 123.955C215.342 128.264 213.313 132.679 209.51 135.058C205.458 137.592 200.3 137.271 195.584 136.571C189.924 135.73 184.334 134.46 178.864 132.77C177.526 132.359 176.071 131.819 175.396 130.584C174.77 129.44 175.014 128.039 175.269 126.756Z" fill="#263238"/>
<path d="M174.595 40.453C181.807 39.6939 187.904 42.864 193.667 47.301C199.43 51.738 203.572 58.1423 205.755 65.1079C208.055 72.437 208.214 80.5359 205.622 87.7688C203.031 95.0017 197.603 101.278 190.581 104.341C181.021 108.489 169.23 106.067 161.327 99.2142C153.424 92.3608 149.34 81.573 149.611 71.1006C149.797 63.8677 151.98 56.5974 156.367 50.8667C160.754 45.136 167.43 41.0732 174.595 40.4798" fill="#263238"/>
<path d="M193.359 66.1924C192.493 63.3752 193.093 60.312 192.865 57.3932C192.365 50.9194 187.554 45.4507 181.78 42.5639C176.405 39.891 169.623 39.9552 162.83 41.6872C158.177 42.8794 153.721 45.1887 150.439 48.7223C148.277 51.0949 146.711 53.9537 145.871 57.0598C145.032 60.166 144.942 63.4294 145.611 66.5773L178.514 63.9044C181.403 66.6468 184.356 69.432 187.978 71.0892C189.016 71.633 190.176 71.8964 191.346 71.8536C191.926 71.8187 192.485 71.6175 192.955 71.2737C193.426 70.9299 193.789 70.4578 194.001 69.9131C194.362 68.6836 193.709 67.4113 193.359 66.1924Z" fill="#263238"/>
<path d="M156.478 139.485C156.478 139.485 158.411 117.342 158.406 117.396C158.401 117.449 146.854 115.161 144.831 99.8617C143.827 92.2546 144.517 79.8416 145.404 69.7006C146.206 60.5753 152.505 49.5095 161.534 50.707L189.609 58.6134C190.932 58.7851 192.143 59.4519 193 60.481C193.857 61.5101 194.298 62.8263 194.235 64.1677L189.397 119.165L187.702 141.682L156.478 139.485Z" fill="#FFBF9D"/>
<path d="M151.066 82.7591C151.049 83.2684 151.229 83.7644 151.569 84.1418C151.909 84.5192 152.383 84.7481 152.888 84.7798C153.134 84.8063 153.384 84.7827 153.621 84.7105C153.858 84.6383 154.079 84.5189 154.269 84.3594C154.46 84.1999 154.617 84.0036 154.731 83.7819C154.845 83.5603 154.913 83.3179 154.933 83.0691C154.95 82.5599 154.77 82.0638 154.43 81.6864C154.089 81.309 153.616 81.0801 153.111 81.0484C152.864 81.0219 152.615 81.0455 152.378 81.1177C152.14 81.1899 151.92 81.3093 151.729 81.4688C151.539 81.6283 151.382 81.8247 151.268 82.0463C151.154 82.2679 151.085 82.5103 151.066 82.7591Z" fill="#263238"/>
<path d="M147.921 76.2326C148.155 76.4892 149.653 75.4361 151.746 75.4896C153.838 75.543 155.336 76.6389 155.57 76.3877C155.686 76.2808 155.453 75.8103 154.794 75.3185C153.907 74.6628 152.84 74.3004 151.74 74.2814C150.654 74.2488 149.585 74.5673 148.692 75.1902C148.038 75.6606 147.805 76.115 147.921 76.2326Z" fill="#263238"/>
<path d="M169.91 82.7591C169.892 83.2684 170.073 83.7645 170.413 84.1418C170.753 84.5192 171.226 84.7481 171.732 84.7798C171.978 84.8063 172.227 84.7827 172.465 84.7105C172.702 84.6383 172.923 84.519 173.113 84.3594C173.304 84.1999 173.461 84.0036 173.575 83.7819C173.689 83.5603 173.757 83.3179 173.776 83.0691C173.794 82.5607 173.614 82.0654 173.275 81.6882C172.936 81.311 172.464 81.0815 171.96 81.0484C171.713 81.0219 171.464 81.0455 171.226 81.1176C170.988 81.1897 170.767 81.3091 170.576 81.4685C170.385 81.6279 170.228 81.8243 170.113 82.0459C169.999 82.2676 169.93 82.5101 169.91 82.7591Z" fill="#263238"/>
<path d="M168.019 76.0234C168.258 76.2853 169.756 75.2269 171.843 75.2857C173.931 75.3445 175.439 76.435 175.667 76.1838C175.784 76.0715 175.551 75.6064 174.892 75.1146C174.005 74.4608 172.938 74.1003 171.838 74.0829C170.752 74.0513 169.685 74.3676 168.789 74.9863C168.136 75.4514 167.908 75.9058 168.019 76.0234Z" fill="#263238"/>
<path d="M160.477 92.5469C160.477 92.4239 159.197 92.1673 157.099 91.8412C156.568 91.7717 156.037 91.6541 155.984 91.3066C155.931 90.9592 156.106 90.3444 156.377 89.7029C156.908 88.4145 157.471 87.0674 158.061 85.6561C160.397 79.888 162.102 75.1409 161.869 75.05C161.635 74.9592 159.558 79.5565 157.221 85.3193C156.658 86.7413 156.117 88.0991 155.628 89.3928C155.41 90.0023 155.044 90.6865 155.299 91.4937C155.37 91.6852 155.485 91.8575 155.633 91.9975C155.781 92.1374 155.959 92.2413 156.154 92.301C156.447 92.3916 156.75 92.442 157.057 92.4506C159.149 92.6431 160.461 92.6431 160.477 92.5469Z" fill="#263238"/>
<path d="M158.406 117.395C165.532 117.685 172.598 115.979 178.817 112.466C178.817 112.466 173.059 123.644 157.944 121.837L158.406 117.395Z" fill="#FF9A6C"/>
<path d="M167.594 67.5183C167.786 68.0956 169.878 67.8765 172.321 68.2346C174.764 68.5928 176.73 69.3038 177.069 68.812C177.218 68.5714 176.889 68.0262 176.103 67.4541C175.054 66.7463 173.859 66.2892 172.608 66.1178C171.357 65.9464 170.083 66.0652 168.885 66.4652C167.977 66.8287 167.509 67.267 167.594 67.5183Z" fill="#263238"/>
<path d="M148.745 67.0486C149.101 67.5351 150.55 67.0807 152.282 67.0968C154.013 67.1128 155.469 67.503 155.819 67.0112C155.973 66.7707 155.755 66.2896 155.123 65.8191C154.277 65.2555 153.284 64.9576 152.269 64.9633C151.254 64.969 150.264 65.2781 149.424 65.8512C148.814 66.327 148.601 66.8134 148.745 67.0486Z" fill="#263238"/>
<path d="M198.835 62.1036C196.439 53.1868 184.314 40.4691 175.141 40.7203L160.153 48.8834C160.52 51.4112 161.556 53.7927 163.155 55.7769C164.753 57.7611 166.854 59.2746 169.235 60.1577C171.785 61.0665 174.881 61.4193 176.321 63.7234C177.76 66.0274 176.724 69.3578 178.084 71.7742C179.959 75.126 185.493 75.2169 186.858 78.8146C187.453 80.3809 187.023 82.2092 187.649 83.7701C188.478 85.8497 193.492 88.6562 195.616 88.0789C197.74 87.5015 197.932 83.861 198.707 81.99C200.035 78.7825 199.621 77.0825 199.313 75.2489C198.596 70.8921 199.976 66.3588 198.835 62.1036Z" fill="#263238"/>
<path d="M189.306 89.5855C189.338 88.4522 190.708 85.8061 191.824 85.6617C194.809 85.2715 200.162 85.6617 200.019 93.2474C199.828 103.64 189.503 101.298 189.492 101.004C189.481 100.71 189.2 93.504 189.306 89.5855Z" fill="#FFBF9D"/>
<path d="M192.716 97.1232C192.764 97.0912 192.897 97.2569 193.199 97.4012C193.623 97.5942 194.105 97.6133 194.543 97.4547C195.637 97.0698 196.588 95.3484 196.667 93.472C196.711 92.5825 196.555 91.6945 196.211 90.874C196.12 90.5479 195.953 90.2487 195.723 90.002C195.492 89.7553 195.206 89.5684 194.888 89.4573C194.684 89.4022 194.467 89.4194 194.273 89.506C194.08 89.5926 193.922 89.7434 193.826 89.9331C193.683 90.2218 193.746 90.4303 193.688 90.4677C193.629 90.5051 193.47 90.2913 193.56 89.8636C193.625 89.6084 193.772 89.3824 193.98 89.2221C194.268 89.0118 194.626 88.9235 194.978 88.9762C195.775 89.0457 196.476 89.7941 196.827 90.6227C197.252 91.53 197.449 92.5288 197.4 93.5309C197.294 95.6211 196.195 97.5616 194.692 97.9679C194.413 98.0437 194.121 98.0557 193.837 98.0029C193.553 97.9502 193.284 97.8341 193.051 97.6632C192.732 97.3798 192.684 97.1446 192.716 97.1232Z" fill="#FF9A6C"/>
<path d="M163.345 45.9334C162.129 50.0925 155.41 55.0908 152.41 58.1914C146.674 64.1145 145.505 66.1245 144.65 80.1092C142.441 75.1108 140.81 70.2461 141.352 64.7988C141.893 59.3514 144.241 54.0163 148.256 50.3277C152.271 46.6391 158.018 44.7787 163.34 45.9067" fill="#263238"/>
<path d="M200.332 91.9443C200.728 91.5788 201.076 91.1638 201.368 90.7094C201.753 90.2148 202.107 89.6971 202.43 89.1591L203.662 86.9674C205.367 83.653 206.716 78.521 206.631 72.8063C206.559 70.1229 206.205 67.4546 205.574 64.8464C205.032 62.7266 204.276 60.6684 203.317 58.7041C202.897 57.8701 202.451 57.1484 202.069 56.5176C201.686 55.8868 201.267 55.395 200.938 54.9941C200.6 54.5717 200.207 54.1976 199.769 53.8822C199.636 53.9944 201.325 55.5875 202.796 58.9553C203.659 60.9134 204.343 62.9459 204.841 65.0282C205.421 67.5843 205.754 70.191 205.834 72.8117C205.909 78.3873 204.698 83.391 203.179 86.7108L202.074 88.9186C201.761 89.5761 201.373 90.0733 201.123 90.5223C200.797 90.9579 200.53 91.4363 200.332 91.9443Z" fill="#455A64"/>
<path d="M166.994 97.348C166.894 96.8718 166.715 96.4163 166.463 96.0009C166.337 95.7939 166.162 95.6219 165.953 95.5005C165.744 95.3791 165.509 95.3122 165.268 95.3059C164.919 95.3472 164.586 95.4779 164.301 95.6855L160.429 97.9895L160.089 98.9411C160.862 100.154 161.87 101.198 163.053 102.01C163.393 102.281 163.805 102.445 164.237 102.48C164.787 102.419 165.299 102.17 165.687 101.774C166.263 101.38 166.738 100.854 167.074 100.24C167.488 99.3527 167.244 98.3049 166.994 97.348Z" fill="#FF9A6C"/>
<path d="M164.083 102.801C164.041 102.704 164.986 102.544 165.969 101.544C166.533 100.965 166.921 100.237 167.09 99.4436C167.274 98.4745 167.124 97.471 166.665 96.5996C166.545 96.3728 166.405 96.158 166.245 95.9581C166.109 95.7715 165.94 95.612 165.746 95.4877C165.668 95.4361 165.579 95.4043 165.487 95.395C165.394 95.3856 165.301 95.3991 165.215 95.4342C165.009 95.5257 164.812 95.6348 164.625 95.7603C163.807 96.2628 163.069 96.7012 162.448 97.07C161.199 97.797 160.403 98.2194 160.366 98.1392C160.328 98.059 161.045 97.5351 162.24 96.7172C162.835 96.3109 163.552 95.8351 164.365 95.3112C164.579 95.1579 164.809 95.0271 165.05 94.921C165.205 94.8604 165.371 94.8356 165.537 94.8486C165.702 94.8615 165.863 94.9119 166.006 94.9958C166.261 95.1522 166.484 95.3553 166.665 95.5946C166.849 95.8207 167.011 96.0642 167.148 96.3216C167.668 97.3044 167.821 98.4426 167.578 99.5291C167.376 100.41 166.906 101.206 166.234 101.806C165.797 102.208 165.279 102.511 164.715 102.694C164.322 102.827 164.089 102.827 164.083 102.801Z" fill="#263238"/>
<path d="M219.044 239.734L211.496 220.173C211.496 220.173 212.028 199.982 213.87 190.771C215.713 181.56 211.597 130.326 211.597 130.326L189.014 124.232C189.014 124.232 183.528 133.566 173.575 132.641C161.89 131.572 157.811 124.232 157.811 124.232L143.89 126.493C143.89 126.493 135.228 157.643 131.51 164.924C127.792 172.205 127.5 194.642 127.5 194.642C127.5 194.642 131.526 207.188 132.519 211.385C132.664 211.992 132.614 212.631 132.376 213.208L123.018 239.734H219.044Z" fill="#FD9706"/>
<g opacity="0.3">
<path d="M202.515 188.568C202.722 191.364 202.143 195.689 202.664 198.442L207.146 199.41C208.849 196.088 209.973 192.497 210.471 188.793C210.471 188.793 202.451 187.799 202.515 188.568Z" fill="black"/>
</g>
<g opacity="0.3">
<path d="M196.158 206.316C195.561 205.661 194.808 205.172 193.969 204.894C193.072 204.767 192.156 204.877 191.314 205.214L178.116 209.219L168.704 206.765C170.567 210.476 173.645 213.427 177.419 215.119C181.192 216.812 185.43 217.142 189.418 216.056C191.043 215.612 192.711 214.928 194.352 215.291C195.903 215.633 197.092 216.826 198.303 217.852C202.021 220.995 207.656 221.177 212.484 221.594C207.863 215.489 201.745 211.555 196.158 206.316Z" fill="black"/>
</g>
<path d="M203.647 195.568L212.856 197.284L211.263 162.91L211.576 130.301C211.576 130.301 223.218 134.043 229.013 145.055C234.807 156.067 235.912 171.228 236.533 179.407C237.25 188.837 237.861 212.043 236.969 217.656C236.077 223.27 229.746 229.091 219.044 225.632C213.637 223.884 194.533 207.489 194.533 207.489L203.647 195.568Z" fill="#FD9706"/>
<path d="M143.89 126.477C143.89 126.477 124.547 130.133 120.617 137.794C116.687 145.454 98.0231 187.815 100.434 200.014C102.846 212.213 117.196 217.655 122.04 212.796C126.884 207.936 131.515 194.39 131.515 194.39L143.89 126.477Z" fill="#FD9706"/>
<path d="M214.842 223.355L214.736 223.291L214.433 223.077L213.286 222.232L209.037 219.025L194.448 208.06L194.341 207.975L194.426 207.868L199.477 201.453C201.113 199.389 202.701 197.385 204.215 195.466L204.268 195.401H204.353L212.203 197.128H212.155C214.595 196.79 217.078 196.994 219.431 197.727C221.249 198.28 222.965 199.131 224.509 200.245C225.503 200.96 226.415 201.785 227.228 202.704C227.515 203.019 227.701 203.287 227.839 203.458L227.988 203.655C228.005 203.677 228.021 203.7 228.035 203.725C228.035 203.725 228.035 203.725 227.972 203.666L227.807 203.484C227.664 203.319 227.462 203.062 227.175 202.757C225.048 200.488 222.359 198.831 219.383 197.957C217.057 197.256 214.607 197.073 212.203 197.422H212.16L204.305 195.722L204.438 195.674L199.706 201.661C197.953 203.88 196.248 206.034 194.644 208.076V207.889L209.154 218.95L213.371 222.2L214.497 223.082L214.784 223.312C214.816 223.323 214.848 223.349 214.842 223.355Z" fill="#263238"/>
<path d="M212.883 165.454C212.904 165.56 212.918 165.667 212.925 165.775C212.925 166.015 212.973 166.309 213.005 166.694C213.063 167.533 213.143 168.683 213.244 170.089C213.424 172.949 213.653 176.91 213.738 181.288C213.823 185.666 213.695 189.644 213.456 192.514C213.403 193.231 213.329 193.872 213.27 194.439C213.212 195.006 213.148 195.508 213.09 195.893L212.946 196.807C212.935 196.914 212.914 197.02 212.883 197.122C212.87 197.016 212.87 196.908 212.883 196.802C212.883 196.561 212.936 196.267 212.968 195.882C212.999 195.497 213.063 194.995 213.106 194.428C213.148 193.862 213.212 193.215 213.249 192.498C213.44 189.638 213.536 185.677 213.451 181.299C213.366 176.921 213.169 172.97 213.037 170.105C212.973 168.699 212.925 167.544 212.888 166.71C212.888 166.331 212.888 166.026 212.861 165.785C212.853 165.674 212.86 165.563 212.883 165.454Z" fill="#263238"/>
<path d="M131.032 154.735C131.039 154.785 131.039 154.835 131.032 154.885L130.926 155.313C130.815 155.703 130.671 156.248 130.48 156.916C130.289 157.585 130.044 158.483 129.79 159.488C129.535 160.493 129.216 161.626 128.929 162.914C128.203 165.888 127.634 168.898 127.224 171.933C127.129 172.793 126.996 173.67 126.922 174.568C126.847 175.466 126.789 176.391 126.72 177.327C126.651 178.262 126.672 179.224 126.651 180.192C126.629 181.16 126.693 182.149 126.709 183.143C126.894 186.895 127.335 190.63 128.032 194.321L128.563 196.791C128.727 197.593 128.887 198.394 129.094 199.116C129.481 200.602 129.79 202.003 130.156 203.259C130.522 204.515 130.831 205.654 131.117 206.654C131.404 207.653 131.686 208.498 131.903 209.204L132.392 210.807C132.44 210.978 132.477 211.117 132.509 211.224C132.527 211.272 132.537 211.323 132.541 211.374C132.518 211.329 132.498 211.283 132.482 211.235L132.339 210.823C132.206 210.439 132.026 209.904 131.808 209.22C131.59 208.535 131.277 207.669 130.979 206.686C130.682 205.702 130.347 204.547 129.981 203.297C129.614 202.046 129.274 200.624 128.881 199.154C128.674 198.41 128.515 197.63 128.35 196.828C128.186 196.026 128 195.224 127.819 194.353C127.103 190.661 126.649 186.922 126.459 183.164C126.459 182.159 126.39 181.17 126.401 180.197C126.412 179.224 126.449 178.262 126.475 177.321C126.502 176.38 126.619 175.456 126.688 174.547C126.757 173.638 126.9 172.767 127.001 171.906C127.421 168.864 128.01 165.848 128.764 162.872C129.067 161.599 129.391 160.455 129.667 159.456C129.944 158.456 130.199 157.59 130.406 156.89C130.613 156.189 130.777 155.665 130.9 155.286C130.953 155.115 130.995 154.976 131.032 154.869C131.028 154.824 131.028 154.78 131.032 154.735Z" fill="#263238"/>
<path d="M128.855 159.13C128.281 158.031 127.787 156.891 127.378 155.72C126.883 154.581 126.473 153.407 126.151 152.207C126.73 153.305 127.225 154.445 127.633 155.618C128.131 156.755 128.54 157.929 128.855 159.13Z" fill="#263238"/>
<path d="M216.552 157.109C215.996 158.572 215.354 160 214.63 161.386C213.988 162.814 213.262 164.203 212.458 165.545C213.014 164.083 213.656 162.654 214.38 161.269C215.022 159.84 215.748 158.452 216.552 157.109Z" fill="#263238"/>
<path d="M144.852 126.478L168.38 159.13L202.159 127.467L189.014 124.216H157.811L144.852 126.478Z" fill="#FFBF9D"/>
<g opacity="0.3">
<path d="M126.82 153.912C126.82 161.171 126.231 169.121 124.6 176.193L125.094 184.212C125.386 191.049 123.66 195.892 120.627 202.013C123.448 200.688 125.301 197.79 126.098 194.759C126.895 191.728 126.772 188.531 126.587 185.404C126.31 180.726 126.263 176.177 127.118 171.569C127.612 168.896 128.461 163.77 129.136 161.284C129.131 161.262 129.497 160.166 126.82 153.912Z" fill="black"/>
</g>
<g opacity="0.3">
<path d="M230.537 203.49C229.894 200.004 226.628 197.492 223.197 196.69C219.766 195.888 216.372 196.497 212.909 197.117C220.626 196.775 225.412 200.282 228.742 204.602C228.931 204.93 229.24 205.171 229.602 205.275C229.798 205.282 229.991 205.225 230.152 205.113C230.314 205.002 230.435 204.841 230.5 204.655C230.619 204.278 230.632 203.874 230.537 203.49Z" fill="black"/>
</g>
<path d="M171.286 183.406C171.198 182.905 171.245 182.389 171.421 181.913C171.598 181.436 171.898 181.016 172.29 180.695C173.088 180.059 174.087 179.733 175.104 179.776C175.995 179.776 176.866 180.032 177.617 180.514C178.042 180.78 178.398 181.144 178.656 181.576C178.914 182.009 179.066 182.497 179.099 183C179.132 183.503 179.046 184.007 178.847 184.47C178.649 184.932 178.343 185.341 177.957 185.662C177.102 186.399 176.001 186.781 174.876 186.731C173.934 186.738 173.024 186.38 172.337 185.731C171.689 185.057 171.201 184.127 171.275 183.411" fill="#FD9706"/>
<path d="M161.566 185.956C157.763 186.549 154.104 182.213 153.254 179.46C153.191 179.322 153.162 179.169 153.169 179.017C153.176 178.864 153.22 178.716 153.297 178.584C153.421 178.477 153.569 178.403 153.729 178.369C153.889 178.335 154.054 178.343 154.21 178.391C156.078 178.697 157.8 179.596 159.123 180.957C160.447 182.318 161.303 184.07 161.566 185.956Z" fill="#455A64"/>
<path d="M157.354 183.769C157.266 183.269 157.313 182.753 157.49 182.277C157.666 181.8 157.966 181.38 158.358 181.059C159.155 180.424 160.152 180.098 161.168 180.14C162.058 180.135 162.931 180.392 163.68 180.877C164.107 181.143 164.465 181.508 164.724 181.941C164.984 182.375 165.136 182.864 165.169 183.369C165.203 183.873 165.116 184.379 164.916 184.843C164.716 185.307 164.408 185.716 164.02 186.036C163.165 186.773 162.064 187.155 160.939 187.105C159.996 187.114 159.087 186.756 158.4 186.106C157.747 185.427 157.264 184.502 157.338 183.785" fill="#FD9706"/>
<path d="M195.828 183.768C195.738 183.268 195.783 182.752 195.959 182.275C196.135 181.798 196.434 181.378 196.827 181.058C197.625 180.421 198.624 180.095 199.642 180.138C200.532 180.135 201.405 180.391 202.154 180.876C202.581 181.142 202.94 181.506 203.199 181.94C203.458 182.373 203.61 182.862 203.644 183.367C203.677 183.872 203.59 184.377 203.39 184.841C203.19 185.305 202.883 185.714 202.494 186.035C201.639 186.771 200.538 187.153 199.413 187.104C198.469 187.112 197.558 186.754 196.869 186.104C196.221 185.425 195.733 184.5 195.807 183.784" fill="#FD9706"/>
<g opacity="0.3">
<path d="M171.286 183.406C171.198 182.905 171.245 182.389 171.421 181.913C171.598 181.436 171.898 181.016 172.29 180.695C173.088 180.059 174.087 179.733 175.104 179.776C175.995 179.776 176.866 180.032 177.617 180.514C178.042 180.78 178.398 181.144 178.656 181.576C178.914 182.009 179.066 182.497 179.099 183C179.132 183.503 179.046 184.007 178.847 184.47C178.649 184.932 178.343 185.341 177.957 185.662C177.102 186.399 176.001 186.781 174.876 186.731C173.934 186.738 173.024 186.38 172.337 185.731C171.689 185.057 171.201 184.127 171.275 183.411" fill="black"/>
</g>
<g opacity="0.3">
<path d="M157.354 183.768C157.266 183.268 157.313 182.752 157.49 182.276C157.666 181.799 157.966 181.379 158.358 181.058C159.155 180.423 160.152 180.097 161.168 180.139C162.058 180.134 162.931 180.391 163.68 180.876C164.107 181.142 164.465 181.507 164.724 181.94C164.984 182.374 165.136 182.863 165.169 183.368C165.203 183.872 165.116 184.378 164.916 184.842C164.716 185.306 164.408 185.715 164.02 186.035C163.165 186.772 162.064 187.154 160.939 187.104C159.996 187.113 159.087 186.755 158.4 186.105C157.747 185.426 157.264 184.501 157.338 183.785" fill="black"/>
</g>
<g opacity="0.3">
<path d="M195.828 183.767C195.738 183.267 195.783 182.751 195.959 182.275C196.135 181.798 196.434 181.377 196.827 181.057C197.625 180.421 198.624 180.094 199.642 180.137C200.532 180.134 201.405 180.39 202.154 180.875C202.581 181.141 202.94 181.506 203.199 181.939C203.458 182.372 203.61 182.862 203.644 183.366C203.677 183.871 203.59 184.376 203.39 184.84C203.19 185.304 202.883 185.713 202.494 186.034C201.639 186.77 200.538 187.152 199.413 187.103C198.469 187.112 197.558 186.754 196.869 186.103C196.221 185.424 195.733 184.5 195.807 183.783" fill="black"/>
</g>
<path d="M176.894 185.04C176.974 183.057 178.392 180.662 179.587 179.085C180.797 177.491 182.466 176.311 184.367 175.706C184.497 175.656 184.641 175.656 184.771 175.706C184.832 175.746 184.885 175.797 184.927 175.858C184.968 175.919 184.996 175.987 185.01 176.059C185.385 177.232 185.447 178.483 185.188 179.687C184.929 180.891 184.359 182.004 183.536 182.915C182.713 183.827 181.665 184.503 180.499 184.876C179.332 185.249 178.089 185.306 176.894 185.04Z" fill="#455A64"/>
<path d="M190.778 181.955C191.547 181.102 192.239 180.181 192.844 179.202C193.446 178.215 193.764 177.079 193.762 175.92C193.77 175.835 193.759 175.749 193.73 175.668C193.7 175.588 193.653 175.515 193.592 175.455C193.52 175.414 193.441 175.388 193.358 175.38C193.276 175.372 193.193 175.381 193.114 175.407C190.961 175.84 188.997 176.943 187.5 178.561C186.003 180.178 185.048 182.227 184.771 184.42L184.648 184.981C186.43 186.092 188.57 186.464 190.618 186.018C192.272 185.762 193.857 185.175 195.281 184.292C196.715 183.394 197.755 181.982 198.192 180.341C196.914 180.047 195.588 180.039 194.306 180.318C193.025 180.597 191.82 181.156 190.778 181.955Z" fill="#455A64"/>
<path d="M167.26 178.049C165.528 176.178 163.09 175.12 160.631 174.473C160.45 175.732 160.519 177.015 160.833 178.247C161.148 179.479 161.702 180.636 162.464 181.651C163.225 182.666 164.179 183.519 165.271 184.161C166.362 184.802 167.569 185.22 168.821 185.389L168.975 185.122C169.883 182.732 168.991 179.92 167.26 178.049Z" fill="#455A64"/>
<path d="M201.256 185.907C201.331 183.923 202.749 181.528 203.944 179.946C205.158 178.356 206.826 177.177 208.724 176.568C208.854 176.517 208.998 176.517 209.128 176.568C209.188 176.607 209.24 176.659 209.281 176.72C209.321 176.78 209.348 176.849 209.361 176.92C209.741 178.092 209.807 179.343 209.552 180.548C209.297 181.753 208.73 182.869 207.909 183.783C207.089 184.697 206.043 185.377 204.877 185.753C203.712 186.13 202.468 186.19 201.272 185.928" fill="#455A64"/>
<path d="M153.583 184.025C153.583 184.025 158.746 199.501 163.207 201.907C167.669 204.312 177.627 206.589 182.678 206.531C187.729 206.472 190.772 206.349 194.835 204.077L194.958 204.007C199.907 201.201 203.753 196.773 205.856 191.461L209.043 183.442L153.583 184.025Z" fill="#E0E0E0"/>
<path d="M205.463 192.755C204.968 193.202 204.403 193.564 203.79 193.824C203.076 194.146 202.319 194.358 201.543 194.455C200.512 194.589 199.464 194.513 198.463 194.23C197.353 193.931 196.232 193.305 194.92 193.161C194.244 193.116 193.566 193.22 192.934 193.466C192.27 193.696 191.617 194.032 190.921 194.343C190.212 194.686 189.451 194.906 188.669 194.995C187.85 195.05 187.028 194.958 186.242 194.722C184.648 194.294 183.108 193.493 181.414 193.204C180.586 193.059 179.737 193.112 178.933 193.359C178.152 193.634 177.403 193.992 176.697 194.428C176 194.846 175.274 195.214 174.525 195.529C173.791 195.84 172.992 195.963 172.199 195.887C170.643 195.674 169.437 194.781 168.157 194.471C166.95 194.232 165.705 194.257 164.508 194.546C163.503 194.771 162.485 194.932 161.46 195.027C160.679 195.089 159.893 195.013 159.139 194.802C158.662 194.665 158.217 194.436 157.827 194.129C157.688 194.026 157.563 193.906 157.455 193.771C157.949 194.209 158.536 194.527 159.171 194.701C159.915 194.886 160.685 194.944 161.449 194.872C162.466 194.756 163.476 194.577 164.471 194.337C165.689 194.033 166.958 194 168.189 194.241C169.522 194.556 170.744 195.438 172.21 195.62C172.96 195.69 173.715 195.57 174.408 195.273C175.139 194.964 175.849 194.607 176.533 194.204C177.255 193.764 178.022 193.406 178.822 193.134C179.666 192.873 180.56 192.816 181.43 192.969C183.182 193.273 184.712 194.075 186.279 194.498C187.769 194.982 189.39 194.855 190.788 194.145C191.473 193.845 192.137 193.509 192.822 193.273C193.487 193.018 194.2 192.914 194.909 192.969C196.285 193.118 197.406 193.76 198.484 194.065C199.461 194.351 200.485 194.439 201.495 194.321C202.259 194.238 203.007 194.044 203.715 193.744C204.179 193.55 204.623 193.314 205.043 193.038C205.314 192.851 205.457 192.749 205.463 192.755Z" fill="#263238"/>
<path d="M205.463 190.964C204.962 191.413 204.389 191.775 203.769 192.033C203.046 192.356 202.28 192.57 201.495 192.669C200.453 192.804 199.395 192.726 198.383 192.439C197.262 192.14 196.126 191.514 194.798 191.37C194.115 191.327 193.431 191.431 192.79 191.675C192.116 191.91 191.457 192.247 190.751 192.551C190.036 192.897 189.267 193.118 188.478 193.203C187.649 193.258 186.817 193.168 186.019 192.936C184.425 192.503 182.832 191.707 181.143 191.413C180.305 191.27 179.445 191.323 178.631 191.568C177.84 191.842 177.079 192.201 176.363 192.637C175.658 193.054 174.925 193.422 174.17 193.738C173.426 194.05 172.618 194.171 171.817 194.091C170.223 193.877 169.023 192.984 167.727 192.68C166.506 192.436 165.247 192.46 164.036 192.749C163.022 192.975 161.995 193.136 160.961 193.23C160.171 193.291 159.378 193.217 158.613 193.011C158.133 192.872 157.682 192.644 157.285 192.337C157.146 192.234 157.019 192.113 156.908 191.979C157.411 192.415 158.004 192.731 158.645 192.904C159.398 193.092 160.178 193.15 160.95 193.075C161.976 192.959 162.994 192.781 163.999 192.541C165.237 192.234 166.527 192.199 167.78 192.439C169.129 192.754 170.367 193.636 171.849 193.818C172.607 193.889 173.371 193.772 174.074 193.476C174.818 193.159 175.54 192.793 176.236 192.38C176.967 191.942 177.744 191.583 178.551 191.311C179.411 191.047 180.321 190.99 181.207 191.145C182.975 191.45 184.532 192.252 186.114 192.674C187.62 193.165 189.258 193.038 190.671 192.321C191.367 192.022 192.036 191.685 192.732 191.45C193.41 191.195 194.135 191.091 194.857 191.145C196.248 191.295 197.379 191.936 198.473 192.241C199.461 192.529 200.495 192.618 201.517 192.503C202.289 192.417 203.045 192.223 203.763 191.926C204.218 191.735 204.655 191.504 205.07 191.236C205.195 191.136 205.326 191.045 205.463 190.964Z" fill="#263238"/>
<path d="M185.705 206.511C185.705 206.511 178.052 201.699 176.257 202.282C175.747 202.459 175.302 202.788 174.982 203.225C174.663 203.663 174.483 204.188 174.467 204.73C173.084 203.418 171.607 202.211 170.048 201.117C169.156 200.539 168.062 200.117 167.069 200.582L166.766 200.956L166.899 201.624C166.899 201.624 162.352 200.277 164.418 202.972C166.484 205.666 175.487 211.199 176.963 211.894C178.44 212.589 185.275 214.636 188.435 212.722C190.394 212.19 192.169 211.124 193.566 209.643C195.754 207.216 198.978 203.266 198.978 203.266L198.766 199.31L189.992 205.874L185.705 206.511Z" fill="#FFBF9D"/>
<path d="M204.549 196.984C204.475 196.438 204.249 195.924 203.896 195.503C203.519 195.113 202.6 194.776 202.186 195.134C201.15 195.872 199.939 198.037 199.939 198.037C199.243 198.523 198.346 198.572 197.714 199.133C197.376 199.387 197.098 199.714 196.901 200.089C196.703 200.464 196.591 200.879 196.572 201.303C196.627 201.807 196.828 202.284 197.149 202.675C197.469 203.066 197.896 203.355 198.378 203.506C199.347 203.789 200.368 203.844 201.362 203.666C202.425 203.538 203.588 203.303 204.257 202.463C204.763 201.693 204.985 200.768 204.884 199.849C204.86 198.886 204.748 197.927 204.549 196.984Z" fill="#FFBF9D"/>
<path d="M172.3 208.407C171.862 208.16 171.459 207.857 171.1 207.504C170.195 206.695 169.379 205.79 168.667 204.804C167.951 203.821 167.349 202.76 166.872 201.639C166.778 201.434 166.743 201.206 166.771 200.982C166.798 200.807 166.891 200.65 167.031 200.544C167.276 200.372 167.456 200.474 167.44 200.485C167.313 200.49 167.193 200.542 167.1 200.629C166.997 200.727 166.934 200.861 166.925 201.003C166.918 201.198 166.962 201.392 167.053 201.565C167.575 202.641 168.19 203.67 168.89 204.638C169.593 205.61 170.377 206.52 171.232 207.359C171.608 207.688 171.964 208.038 172.3 208.407Z" fill="#FF9A6C"/>
<path d="M188.148 212.299C187.936 212.329 187.72 212.338 187.506 212.326C187.254 212.327 187.002 212.315 186.751 212.288C186.459 212.261 186.119 212.245 185.753 212.181C184.892 212.053 184.043 211.854 183.214 211.588C182.198 211.254 181.213 210.83 180.272 210.321C179.334 209.797 178.445 209.189 177.616 208.503C176.948 207.94 176.326 207.323 175.757 206.659C175.535 206.408 175.326 206.146 175.131 205.873C174.973 205.674 174.828 205.465 174.695 205.248C174.566 205.075 174.459 204.886 174.376 204.686C174.419 204.686 174.908 205.435 175.901 206.531C176.483 207.166 177.11 207.759 177.776 208.305C178.596 208.967 179.47 209.559 180.389 210.075C181.315 210.574 182.28 211 183.273 211.347C184.089 211.618 184.923 211.831 185.769 211.983C187.235 212.24 188.154 212.24 188.148 212.299Z" fill="#FF9A6C"/>
<path d="M200.396 203.837C200.287 203.892 200.168 203.923 200.046 203.928C199.717 203.972 199.383 203.959 199.058 203.89C198.57 203.805 198.109 203.603 197.714 203.302C197.225 202.916 196.879 202.376 196.732 201.768C196.575 201.158 196.645 200.512 196.928 199.95C197.173 199.498 197.541 199.127 197.99 198.881C198.283 198.715 198.607 198.612 198.941 198.576C199.175 198.576 199.302 198.576 199.302 198.576C198.877 198.66 198.468 198.811 198.091 199.025C197.702 199.274 197.387 199.623 197.178 200.036C196.933 200.545 196.877 201.125 197.018 201.672C197.156 202.22 197.463 202.71 197.895 203.072C198.254 203.367 198.673 203.58 199.122 203.698C199.541 203.782 199.968 203.829 200.396 203.837Z" fill="#FF9A6C"/>
<g opacity="0.6">
<path d="M166.473 198.377C166.089 197.156 165.506 196.007 164.747 194.977L160.275 188.135C160.006 187.639 159.619 187.219 159.149 186.911C158.714 186.67 157.444 186.077 157.179 187.146C157.125 187.399 157.143 187.662 157.232 187.905C158.701 192.151 161.215 195.953 164.54 198.955C165.039 199.404 165.815 199.853 166.304 199.265C166.399 199.14 166.464 198.995 166.493 198.841C166.523 198.687 166.516 198.528 166.473 198.377Z" fill="white"/>
</g>
<path d="M106.011 113.673C105.023 112.118 104.009 110.53 102.57 109.397C102.331 109.169 102.05 108.99 101.743 108.872C101.436 108.753 101.108 108.697 100.78 108.707C100.499 108.755 100.233 108.869 100.004 109.04C99.7748 109.211 99.5893 109.434 99.4625 109.691C99.213 110.209 99.0997 110.784 99.1332 111.359C99.181 113.358 100.254 115.192 101.475 116.774C102.697 118.356 104.131 119.805 105.06 121.585H111.02L106.011 113.673Z" fill="#FF9A6C"/>
<path d="M144.097 116.582C142.276 115.133 139.933 114.508 137.623 114.267C137.628 115.43 137.863 116.58 138.314 117.651C138.765 118.721 139.422 119.691 140.249 120.504C141.075 121.317 142.053 121.956 143.127 122.385C144.201 122.814 145.348 123.024 146.503 123.002L146.604 122.74C147.098 120.442 145.914 118.036 144.097 116.582Z" fill="#455A64"/>
<path d="M140.146 116.497C140.541 116.706 140.909 116.965 141.24 117.266C141.888 117.801 142.748 118.528 143.651 119.405C144.554 120.281 145.319 121.142 145.845 121.778C146.149 122.104 146.416 122.463 146.642 122.847C146.298 122.563 145.981 122.246 145.696 121.901C145.139 121.303 144.352 120.479 143.46 119.603C142.568 118.726 141.723 117.956 141.113 117.405C140.767 117.129 140.444 116.825 140.146 116.497Z" fill="#263238"/>
<path d="M152.171 115.894C152.011 113.574 150.891 111.419 149.515 109.543C148.67 110.329 147.989 111.276 147.51 112.33C147.032 113.383 146.766 114.521 146.727 115.678C146.689 116.836 146.878 117.99 147.286 119.073C147.693 120.156 148.31 121.147 149.101 121.988L149.366 121.886C151.363 120.721 152.335 118.219 152.171 115.894Z" fill="#455A64"/>
<path d="M149.807 112.038C149.831 112.488 149.808 112.94 149.738 113.385C149.658 114.31 149.563 115.406 149.456 116.593C149.35 117.779 149.276 118.897 149.201 119.827C149.193 120.278 149.143 120.727 149.053 121.169C148.988 120.721 148.974 120.267 149.01 119.816C149.01 118.988 149.074 117.833 149.18 116.566C149.286 115.299 149.424 114.155 149.547 113.332C149.587 112.892 149.674 112.459 149.807 112.038Z" fill="#263238"/>
<path d="M147.656 123.452C149.466 123.452 150.933 121.976 150.933 120.154C150.933 118.332 149.466 116.856 147.656 116.856C145.846 116.856 144.379 118.332 144.379 120.154C144.379 121.976 145.846 123.452 147.656 123.452Z" fill="#FD9706"/>
<g opacity="0.3">
<path d="M147.656 123.452C149.466 123.452 150.933 121.975 150.933 120.154C150.933 118.332 149.466 116.855 147.656 116.855C145.846 116.855 144.379 118.332 144.379 120.154C144.379 121.975 145.846 123.452 147.656 123.452Z" fill="black"/>
</g>
<path d="M134.649 124.505C131.563 124.505 128.403 121.971 126.268 119.806L126.194 119.731C126.112 119.65 126.021 119.578 125.923 119.517C125.654 119.355 125.349 119.265 125.036 119.255C111.121 118.598 92.6377 113.642 92.4518 113.594C92.2729 113.546 92.1203 113.428 92.0277 113.267C91.9351 113.105 91.9099 112.913 91.9578 112.733C92.0057 112.553 92.1227 112.4 92.2831 112.307C92.4435 112.213 92.634 112.188 92.8129 112.236C92.9988 112.29 111.338 117.202 125.1 117.849C125.663 117.868 126.212 118.034 126.693 118.33C126.877 118.447 127.046 118.585 127.197 118.742L127.277 118.822C130.108 121.693 132.822 123.211 134.899 123.099C138.447 122.906 147.385 120.239 147.476 120.212C147.563 120.185 147.655 120.176 147.746 120.185C147.837 120.194 147.926 120.221 148.006 120.265C148.087 120.309 148.158 120.368 148.215 120.44C148.273 120.512 148.316 120.594 148.341 120.683C148.394 120.861 148.375 121.054 148.287 121.218C148.2 121.382 148.051 121.505 147.874 121.559C147.502 121.672 138.686 124.296 134.973 124.499L134.649 124.505Z" fill="#E0E0E0"/>
<path d="M134.649 124.506H134.957C135.159 124.479 135.462 124.463 135.855 124.409C136.646 124.308 137.799 124.094 139.27 123.768C140.741 123.442 142.536 122.987 144.581 122.421C145.611 122.137 146.732 121.822 147.874 121.469C148.001 121.415 148.106 121.319 148.172 121.197C148.237 121.075 148.259 120.934 148.235 120.798C148.21 120.661 148.14 120.537 148.035 120.447C147.931 120.356 147.799 120.303 147.661 120.298C147.51 120.307 147.362 120.34 147.221 120.395L146.748 120.534L145.787 120.812C143.184 121.539 140.327 122.33 137.198 122.923C136.4 123.076 135.593 123.181 134.782 123.239C133.929 123.238 133.085 123.056 132.307 122.704C130.711 121.963 129.249 120.959 127.984 119.732C127.304 119.138 126.762 118.363 125.891 118.128C125.458 118.011 125.011 117.952 124.563 117.952L123.166 117.861C121.302 117.732 119.401 117.529 117.473 117.294C113.611 116.802 109.644 116.129 105.597 115.316C101.55 114.503 97.6302 113.616 93.8592 112.643L93.1528 112.461L92.8023 112.371C92.7046 112.347 92.6026 112.347 92.5049 112.371C92.4094 112.389 92.3203 112.432 92.2463 112.496C92.1723 112.56 92.116 112.642 92.0828 112.734C92.0497 112.826 92.0408 112.925 92.057 113.021C92.0733 113.118 92.1141 113.209 92.1756 113.285C92.2924 113.45 92.4889 113.482 92.7333 113.547L93.4184 113.723L94.7834 114.07C96.5998 114.52 98.379 114.94 100.121 115.332C106.283 116.748 112.512 117.85 118.785 118.636C120.123 118.807 121.403 118.908 122.614 119.021L124.377 119.138C124.669 119.165 124.935 119.17 125.227 119.202C125.511 119.239 125.782 119.348 126.013 119.518C126.221 119.682 126.418 119.861 126.603 120.052L127.134 120.587C127.5 120.924 127.856 121.245 128.196 121.539C128.838 122.076 129.516 122.569 130.225 123.014C131.202 123.643 132.28 124.097 133.412 124.356C133.807 124.429 134.206 124.479 134.607 124.506H134.298C133.997 124.498 133.697 124.468 133.401 124.415C132.258 124.173 131.167 123.729 130.177 123.105C129.459 122.665 128.772 122.176 128.122 121.64C127.76 121.351 127.399 121.031 127.033 120.694L126.502 120.159C126.325 119.966 126.133 119.787 125.928 119.625C125.717 119.47 125.47 119.373 125.211 119.341C124.951 119.315 124.68 119.304 124.372 119.288L122.603 119.176C121.392 119.074 120.107 118.973 118.769 118.812C112.483 118.053 106.241 116.966 100.068 115.557C98.3259 115.172 96.5449 114.755 94.725 114.306L93.36 113.964L92.6695 113.782C92.5474 113.75 92.4518 113.734 92.3137 113.686C92.1801 113.634 92.0628 113.547 91.9738 113.434C91.8831 113.322 91.8229 113.188 91.7991 113.045C91.7753 112.902 91.7886 112.755 91.8378 112.619C91.887 112.483 91.9704 112.362 92.0798 112.268C92.1893 112.173 92.3211 112.109 92.4624 112.082C92.6007 112.058 92.7425 112.067 92.8767 112.109L93.2272 112.199L93.9283 112.381C97.6939 113.338 101.619 114.226 105.661 115.054C109.702 115.883 113.659 116.54 117.51 117.032C119.438 117.273 121.334 117.476 123.193 117.609L124.579 117.7C125.051 117.702 125.52 117.765 125.976 117.887C126.204 117.957 126.424 118.054 126.629 118.176C126.831 118.299 127.001 118.465 127.192 118.609C127.527 118.919 127.829 119.245 128.164 119.545C129.407 120.755 130.844 121.747 132.413 122.479C133.159 122.822 133.967 123.004 134.787 123.014C135.587 122.959 136.384 122.858 137.172 122.709C140.289 122.127 143.147 121.351 145.749 120.635L146.711 120.363L147.183 120.224C147.343 120.163 147.512 120.129 147.683 120.122C147.86 120.132 148.029 120.202 148.162 120.32C148.295 120.438 148.385 120.598 148.417 120.774C148.449 120.95 148.421 121.132 148.338 121.29C148.255 121.448 148.121 121.573 147.959 121.645C146.774 122.004 145.68 122.298 144.639 122.581C142.563 123.116 140.768 123.575 139.286 123.885C137.804 124.195 136.63 124.393 135.86 124.473C135.462 124.516 135.159 124.527 134.957 124.543C134.854 124.536 134.751 124.524 134.649 124.506Z" fill="#263238"/>
<path d="M94.353 126.033C94.353 126.033 95.0329 114.807 96.3606 113.685C97.6884 112.562 103.063 111.226 103.77 111.546C104.476 111.867 108.55 113.46 108.693 114.139C108.76 114.361 108.775 114.596 108.738 114.826C108.7 115.055 108.611 115.272 108.477 115.462C108.344 115.651 108.169 115.807 107.966 115.918C107.763 116.029 107.538 116.091 107.307 116.101L104.12 115.518L100.934 117.25L100.556 120.346C100.556 120.346 103.802 117.737 104.89 116.967C105.979 116.197 108.677 116.229 108.783 118.239C108.783 118.239 112.979 118.747 113.107 121.185C113.107 121.185 116.825 123.895 117.032 125.285C117.239 126.675 115.401 129.455 115.401 129.455C115.401 129.455 121.068 134.972 120.914 136.848C120.76 138.724 121.328 144.632 121.328 144.632L108.438 146.235L108.157 140.889C108.157 140.889 95.1922 128.669 94.353 126.033Z" fill="#FFBF9D"/>
<path d="M115.21 125.586C115.106 126.181 114.852 126.74 114.471 127.208C114.091 127.676 113.597 128.038 113.038 128.258C112.996 128.189 113.665 127.772 114.26 127.029C114.854 126.286 115.136 125.559 115.21 125.586Z" fill="#FF9A6C"/>
<path d="M116.113 126.703C116.177 126.751 115.863 127.093 115.348 127.072C114.833 127.05 114.546 126.681 114.61 126.639C114.674 126.596 114.955 126.783 115.359 126.794C115.762 126.804 116.065 126.644 116.113 126.703Z" fill="#FF9A6C"/>
<path d="M112.99 121.33C112.99 121.378 112.549 121.538 111.88 121.939C111.014 122.459 110.252 123.137 109.633 123.938C109.165 124.547 108.789 125.223 108.518 125.943V125.997H108.476C107.862 126.272 107.226 126.492 106.574 126.654C107.15 126.312 107.754 126.022 108.38 125.788L108.316 125.858C108.563 125.097 108.941 124.386 109.432 123.757C110.069 122.925 110.877 122.242 111.8 121.752C112.168 121.54 112.572 121.397 112.99 121.33Z" fill="#FF9A6C"/>
<path d="M102.368 124.596C102.368 124.596 102.421 124.468 102.607 124.313C102.879 124.108 103.187 123.956 103.515 123.864C103.976 123.741 104.411 123.536 104.8 123.259C105.237 122.857 105.643 122.423 106.016 121.96C106.861 120.993 107.61 120.132 108.205 119.517C108.495 119.164 108.82 118.841 109.177 118.555C108.94 118.939 108.664 119.298 108.353 119.624C107.822 120.271 107.068 121.159 106.229 122.121C105.846 122.597 105.423 123.038 104.965 123.441C104.545 123.726 104.074 123.926 103.579 124.029C103.263 124.101 102.959 124.218 102.676 124.377C102.479 124.516 102.384 124.612 102.368 124.596Z" fill="#FF9A6C"/>
<path d="M100.498 120.308C100.265 121.103 99.8336 121.824 99.2451 122.403C98.6566 122.982 97.9306 123.4 97.1362 123.617C97.8156 123.203 98.4572 122.729 99.0536 122.201C99.5886 121.613 100.072 120.98 100.498 120.308Z" fill="#FF9A6C"/>
<path d="M115.539 129.531C115.539 129.574 115.348 129.531 115.061 129.531C114.688 129.526 114.321 129.624 113.999 129.814L113.803 129.932V129.702V129.632C113.798 129.239 113.73 128.849 113.601 128.478C113.495 128.2 113.367 128.055 113.394 128.023C113.42 127.991 113.606 128.098 113.776 128.387C113.973 128.766 114.077 129.188 114.079 129.616V129.686L113.866 129.573C114.229 129.358 114.655 129.275 115.072 129.338C115.391 129.365 115.555 129.483 115.539 129.531Z" fill="#FF9A6C"/>
<path d="M106.627 144.499C106.627 144.499 98.6604 189.623 99.303 194.381C99.9457 199.139 101.305 218.127 115.332 216.042C129.359 213.957 126.926 194.215 126.438 190.43C125.949 186.646 122.651 161.371 122.651 161.371L121.589 143.692L106.627 144.499Z" fill="#FD9706"/>
<path d="M125.094 182.818C125.056 182.689 125.031 182.557 125.02 182.422C124.988 182.134 124.935 181.76 124.877 181.289C124.755 180.3 124.595 178.873 124.415 177.103C124.053 173.564 123.634 168.673 123.209 163.263C122.784 157.853 122.391 152.962 122.078 149.423C121.924 147.675 121.796 146.253 121.706 145.232C121.671 144.758 121.639 144.378 121.61 144.093C121.603 143.959 121.603 143.826 121.61 143.692C121.649 143.819 121.674 143.95 121.685 144.082C121.72 144.371 121.768 144.751 121.828 145.221C121.95 146.205 122.11 147.637 122.29 149.407C122.651 152.94 123.071 157.837 123.501 163.242C123.931 168.646 124.314 173.543 124.611 177.109C124.765 178.857 124.893 180.284 124.983 181.3C125.02 181.776 125.052 182.155 125.079 182.444C125.09 182.568 125.095 182.693 125.094 182.818Z" fill="#263238"/>
<g opacity="0.6">
<path d="M153.041 197.083H131.334V239.737H153.041V197.083Z" fill="white"/>
</g>
<path d="M148.633 236.979H135.801C135.049 236.979 134.327 236.678 133.796 236.142C133.264 235.607 132.965 234.881 132.965 234.124V208.427L138.972 209.426C140.565 209.688 142.189 209.71 143.789 209.49L151.469 208.421V234.113C151.47 234.489 151.398 234.861 151.256 235.209C151.114 235.556 150.906 235.872 150.642 236.139C150.379 236.405 150.065 236.616 149.721 236.76C149.376 236.904 149.006 236.979 148.633 236.979Z" fill="#EBEBEB"/>
<path d="M152.993 197.323C152.728 197.439 152.455 197.533 152.176 197.607C151.425 197.843 150.663 198.039 149.892 198.195C148.752 198.438 147.599 198.617 146.439 198.729C145.017 198.866 143.588 198.921 142.159 198.895C139.558 198.838 136.97 198.522 134.431 197.954C133.464 197.735 132.684 197.532 132.152 197.366C131.873 197.296 131.599 197.203 131.334 197.088C131.621 197.12 131.903 197.177 132.179 197.259C132.71 197.393 133.501 197.569 134.473 197.762C137.004 198.275 139.573 198.567 142.153 198.633C143.571 198.661 144.989 198.613 146.402 198.489C147.704 198.366 148.872 198.2 149.844 198.008C150.816 197.815 151.602 197.65 152.138 197.511C152.417 197.422 152.703 197.36 152.993 197.323Z" fill="#263238"/>
<path d="M133.002 201.045C133.077 201.045 133.14 208.385 133.14 217.44C133.14 226.496 133.077 233.836 133.002 233.836C132.928 233.836 132.864 226.496 132.864 217.44C132.864 208.385 132.923 201.045 133.002 201.045Z" fill="#263238"/>
<path d="M147.48 237.15C147.48 237.225 144.878 237.289 141.67 237.289C138.462 237.289 135.859 237.225 135.859 237.15C135.859 237.075 138.457 237.011 141.67 237.011C144.883 237.011 147.48 237.075 147.48 237.15Z" fill="#263238"/>
<path d="M133.007 208.534C134.742 210.441 137.1 211.657 139.652 211.96C143.874 212.452 147.937 210.399 151.697 208.405C145.489 209.287 139.036 210.153 133.06 208.256" fill="white"/>
<g opacity="0.6">
<path d="M143.274 218.937C141.357 220.22 139.822 222.043 137.883 223.294C135.944 224.545 133.278 225.128 131.414 223.759V226.705C133.278 228.073 135.944 227.496 137.883 226.24C139.822 224.983 141.357 223.171 143.274 221.883C144.699 220.941 146.305 220.312 147.988 220.035C149.671 219.759 151.392 219.842 153.041 220.279V217.334C151.393 216.895 149.671 216.811 147.988 217.088C146.305 217.364 144.699 217.994 143.274 218.937Z" fill="white"/>
</g>
</svg>
